<svg id="Layer_1" data-name="Layer 1" xmlns="http://www.w3.org/2000/svg" width="2994.32" height="2000" viewBox="0 0 2994.32 2000"><defs><style>.cls-1{fill:#fff;}.cls-2{fill:#24445b;}.cls-3{fill:#feefdc;}.cls-4{fill:#89c1f4;}.cls-5{opacity:0.5;}.cls-6{opacity:0.3;}.cls-7{fill:#fe9f73;}.cls-8{fill:#fec786;}.cls-9{fill:#3aa1c9;}.cls-10{fill:#f28e22;}.cls-11{fill:#ffb357;}.cls-12{fill:#21111d;}.cls-13{fill:#fd7583;}.cls-14{fill:#f07162;}.cls-15{fill:#49263e;}.cls-16{fill:#fbfdfc;}.cls-17{fill:#105e5a;}.cls-18{fill:#dcf4ff;}.cls-19{fill:#ff424d;}.cls-20{fill:#4cb7d8;}.cls-21{fill:#f95565;}.cls-22{fill:#59aee2;}.cls-23{fill:#7fc6a6;}.cls-24{fill:#ffe3c5;}.cls-25{fill:#53a07c;}</style></defs><rect class="cls-1" width="2994.32" height="2000"/><path class="cls-2" d="M2679.55,1853c113.23-123.37,186.17-280,189.77-455.74,3.94-173.27-15.85-355-175.61-450.88h0c-42.8-28.72-87.27-53.74-125.65-94.22-117.59-124.05-17.13-387.89-334.93-591.71-328.69-210.81-673.08-99.69-856.27,1.55s-489.08-8.46-601.14-1.55C248.3,291.57,50.11,1005.41,149.18,1473c28.74,144.66,77,274.08,154.08,380Z"/><path class="cls-1" d="M2107.76,662.8c21.59-1.24,72.21-3.4,116.21.32a30.87,30.87,0,0,0,33.51-31.28c-.16-7.47-2.84-16.17-9.78-26-26.72-38-73.16-1.71-72.72,17.55,0,0-9.38-29-37.9-23.93s-18.43,47.26-18.43,47.26-9.2-1.94-15.58,2.41S2100.17,663.23,2107.76,662.8Z"/><path class="cls-1" d="M753.33,841.27c-21.59-1.23-72.21-3.39-116.21.32a30.87,30.87,0,0,1-33.52-31.27c.17-7.48,2.85-16.17,9.79-26,26.72-37.94,73.16-1.71,72.71,17.56,0,0,9.39-29,37.91-23.93s18.43,47.26,18.43,47.26,9.2-1.95,15.58,2.41S760.91,841.71,753.33,841.27Z"/><polygon class="cls-3" points="2270.99 982.91 2272.91 996.27 2284.99 1002.26 2272.89 1008.21 2270.92 1021.56 2261.52 1011.88 2248.22 1014.14 2254.52 1002.21 2248.26 990.26 2261.55 992.56 2270.99 982.91"/><polygon class="cls-3" points="287.37 1113.69 289.29 1127.05 301.38 1133.04 289.27 1138.99 287.31 1152.34 277.91 1142.66 264.6 1144.92 270.9 1132.99 264.64 1121.04 277.94 1123.34 287.37 1113.69"/><polygon class="cls-3" points="2586.12 1340.46 2589.05 1360.88 2607.54 1370.04 2589.03 1379.14 2586.03 1399.54 2571.65 1384.75 2551.32 1388.2 2560.95 1369.96 2551.38 1351.69 2571.7 1355.21 2586.12 1340.46"/><polygon class="cls-3" points="1465.09 334.12 1467.01 347.48 1479.1 353.47 1466.99 359.42 1465.03 372.77 1455.62 363.09 1442.32 365.35 1448.62 353.42 1442.36 341.46 1455.65 343.77 1465.09 334.12"/><polygon class="cls-3" points="2550.86 943.9 2549.72 951.78 2542.58 955.32 2549.73 958.84 2550.89 966.72 2556.45 961.01 2564.3 962.34 2560.58 955.29 2564.28 948.23 2556.43 949.59 2550.86 943.9"/><polygon class="cls-3" points="285.58 1337.93 286.71 1345.82 293.85 1349.36 286.7 1352.87 285.54 1360.76 279.99 1355.04 272.13 1356.38 275.85 1349.33 272.15 1342.27 280.01 1343.63 285.58 1337.93"/><polygon class="cls-3" points="705.42 945.02 703.74 956.73 693.14 961.98 703.76 967.2 705.48 978.91 713.72 970.42 725.39 972.4 719.87 961.94 725.36 951.46 713.7 953.48 705.42 945.02"/><path class="cls-4" d="M2010.1,820.57a626.69,626.69,0,1,0,76.39,299.85A628.62,628.62,0,0,0,2010.1,820.57Z"/><path class="cls-1" d="M1457.59,1714.44a3.88,3.88,0,0,1,3.86-3.88h0a3.88,3.88,0,0,1,3.88,3.87h0a3.87,3.87,0,0,1-3.87,3.87h0A3.87,3.87,0,0,1,1457.59,1714.44Zm-23.71,3.27h0a3.87,3.87,0,0,1-3.7-4h0a3.88,3.88,0,0,1,4-3.7h0a3.87,3.87,0,0,1,3.69,4h0a3.87,3.87,0,0,1-3.86,3.7h-.17ZM1485,1714a3.87,3.87,0,0,1,3.68-4h0a3.88,3.88,0,0,1,4,3.69h0a3.87,3.87,0,0,1-3.69,4h-.18A3.88,3.88,0,0,1,1485,1714Zm-78.68,1.91h0a3.86,3.86,0,0,1-3.5-4.2h0a3.87,3.87,0,0,1,4.2-3.5h0a3.86,3.86,0,0,1,3.5,4.2h0a3.87,3.87,0,0,1-3.84,3.52h0Zm106-3.63a3.86,3.86,0,0,1,3.5-4.21h0a3.87,3.87,0,0,1,4.21,3.49h0a3.87,3.87,0,0,1-3.5,4.22h-.36A3.87,3.87,0,0,1,1512.38,1712.23Zm-133.46.52a3.87,3.87,0,0,1-3.31-4.35h0a3.87,3.87,0,0,1,4.36-3.31h0a3.87,3.87,0,0,1,3.31,4.36h0a3.87,3.87,0,0,1-3.83,3.34h0A3.23,3.23,0,0,1,1378.92,1712.75Zm160.72-3.5a3.87,3.87,0,0,1,3.29-4.37h0a3.87,3.87,0,0,1,4.37,3.3h0a3.87,3.87,0,0,1-3.3,4.37h0l-.54,0h0A3.86,3.86,0,0,1,1539.64,1709.25Zm-188-.87a3.86,3.86,0,0,1-3.1-4.51h0a3.87,3.87,0,0,1,4.5-3.1h0a3.87,3.87,0,0,1,3.1,4.51h0a3.86,3.86,0,0,1-3.8,3.17h0A3.39,3.39,0,0,1,1351.67,1708.38Zm215.06-3.37a3.86,3.86,0,0,1,3.09-4.51h0a3.86,3.86,0,0,1,4.51,3.09h0a3.85,3.85,0,0,1-3.08,4.51h0a3.65,3.65,0,0,1-.72.07h0A3.86,3.86,0,0,1,1566.73,1705Zm-242.08-2.26h0a3.86,3.86,0,0,1-2.89-4.64h0a3.86,3.86,0,0,1,4.65-2.89h0a3.87,3.87,0,0,1,2.89,4.64h0a3.88,3.88,0,0,1-3.77,3h0A3.79,3.79,0,0,1,1324.65,1702.75Zm268.94-3.22a3.88,3.88,0,0,1,2.89-4.66h0a3.86,3.86,0,0,1,4.64,2.89h0a3.85,3.85,0,0,1-2.87,4.64h0a3.47,3.47,0,0,1-.9.11h0A3.87,3.87,0,0,1,1593.59,1699.53Zm-295.67-3.66a3.87,3.87,0,0,1-2.67-4.78h0a3.86,3.86,0,0,1,4.77-2.66h0a3.87,3.87,0,0,1,2.68,4.77h0A3.88,3.88,0,0,1,1299,1696h0A3.81,3.81,0,0,1,1297.92,1695.87Zm322.26-3.07a3.87,3.87,0,0,1,2.66-4.79h0a3.86,3.86,0,0,1,4.77,2.67h0a3.86,3.86,0,0,1-2.65,4.78h0a4,4,0,0,1-1.07.15h0A3.86,3.86,0,0,1,1620.18,1692.8Zm-348.64-5a3.85,3.85,0,0,1-2.45-4.88h0a3.86,3.86,0,0,1,4.89-2.45h0a3.86,3.86,0,0,1,2.45,4.89h0a3.88,3.88,0,0,1-3.67,2.65h0A3.73,3.73,0,0,1,1271.54,1687.75Zm374.88-2.91a3.87,3.87,0,0,1,2.44-4.9h0a3.87,3.87,0,0,1,4.89,2.43h0a3.88,3.88,0,0,1-2.43,4.91h0a4.11,4.11,0,0,1-1.23.2h0A3.87,3.87,0,0,1,1646.42,1684.84Zm-400.92-6.44h0a3.87,3.87,0,0,1-2.22-5h0a3.86,3.86,0,0,1,5-2.22h0a3.86,3.86,0,0,1,2.22,5h0a3.87,3.87,0,0,1-3.61,2.48h0A3.93,3.93,0,0,1,1245.5,1678.4Zm426.76-2.73a3.88,3.88,0,0,1,2.21-5h0a3.86,3.86,0,0,1,5,2.2h0a3.88,3.88,0,0,1-2.2,5h0a4,4,0,0,1-1.4.26h0A3.88,3.88,0,0,1,1672.26,1675.67Zm-452.32-7.83h0a3.87,3.87,0,0,1-2-5.1h0a3.88,3.88,0,0,1,5.1-2h0a3.86,3.86,0,0,1,2,5.1h0a3.86,3.86,0,0,1-3.54,2.31h0A3.7,3.7,0,0,1,1219.94,1667.84Zm477.65-2.5a3.88,3.88,0,0,1,2-5.11h0a3.86,3.86,0,0,1,5.1,2h0a3.87,3.87,0,0,1-2,5.11h0a3.9,3.9,0,0,1-1.56.33h0A3.88,3.88,0,0,1,1697.59,1665.34Zm-502.69-9.23a3.87,3.87,0,0,1-1.75-5.19h0a3.88,3.88,0,0,1,5.19-1.74h0a3.86,3.86,0,0,1,1.74,5.19h0a3.87,3.87,0,0,1-3.47,2.15h0A3.87,3.87,0,0,1,1194.9,1656.11Zm527.52-2.27a3.87,3.87,0,0,1,1.73-5.19h0a3.85,3.85,0,0,1,5.19,1.73h0a3.86,3.86,0,0,1-1.73,5.19h0a3.9,3.9,0,0,1-1.72.4h0A3.88,3.88,0,0,1,1722.42,1653.84Zm-552-10.6a3.89,3.89,0,0,1-1.5-5.27h0a3.87,3.87,0,0,1,5.26-1.5h0a3.87,3.87,0,0,1,1.51,5.26h0a3.88,3.88,0,0,1-3.39,2h0A3.9,3.9,0,0,1,1170.43,1643.24Zm576.28-2a3.86,3.86,0,0,1,1.48-5.26h0a3.88,3.88,0,0,1,5.27,1.49h0a3.86,3.86,0,0,1-1.49,5.26h0a3.77,3.77,0,0,1-1.88.49h0A3.85,3.85,0,0,1,1746.71,1641.19Zm-600.11-12a3.87,3.87,0,0,1-1.25-5.33h0a3.87,3.87,0,0,1,5.32-1.25h0a3.88,3.88,0,0,1,1.26,5.33h0a3.88,3.88,0,0,1-3.3,1.83h0A3.89,3.89,0,0,1,1146.6,1629.24Zm623.79-1.8a3.87,3.87,0,0,1,1.24-5.33h0a3.86,3.86,0,0,1,5.33,1.25h0a3.86,3.86,0,0,1-1.24,5.32h0a3.85,3.85,0,0,1-2,.59h0A3.88,3.88,0,0,1,1770.39,1627.44Zm-646.94-13.27a3.88,3.88,0,0,1-1-5.38h0a3.87,3.87,0,0,1,5.38-1h0a3.85,3.85,0,0,1,1,5.37h0a3.87,3.87,0,0,1-3.2,1.69h0A3.92,3.92,0,0,1,1123.45,1614.17Zm670-1.57a3.89,3.89,0,0,1,1-5.38h0a3.87,3.87,0,0,1,5.38,1h0a3.88,3.88,0,0,1-1,5.38h0a3.87,3.87,0,0,1-2.19.68h0A3.9,3.9,0,0,1,1793.41,1612.6ZM1101,1598.05h0a3.86,3.86,0,0,1-.76-5.41h0a3.87,3.87,0,0,1,5.42-.76h0a3.85,3.85,0,0,1,.76,5.41h0a3.84,3.84,0,0,1-3.09,1.55h0A3.89,3.89,0,0,1,1101,1598.05Zm714.73-1.33a3.86,3.86,0,0,1,.74-5.42h0a3.88,3.88,0,0,1,5.43.75h0a3.87,3.87,0,0,1-.76,5.42h0a3.83,3.83,0,0,1-2.33.79h0A3.9,3.9,0,0,1,1815.75,1596.72Zm-736.38-15.8h0a3.87,3.87,0,0,1-.52-5.45h0a3.88,3.88,0,0,1,5.45-.51h0a3.86,3.86,0,0,1,.51,5.44h0a3.85,3.85,0,0,1-3,1.4h0A3.85,3.85,0,0,1,1079.37,1580.92Zm758-1.1a3.84,3.84,0,0,1,.5-5.44h0a3.84,3.84,0,0,1,5.44.5h0a3.85,3.85,0,0,1-.5,5.44h0a3.87,3.87,0,0,1-2.48.9h0A3.84,3.84,0,0,1,1837.33,1579.82Zm-778.81-17h0a3.85,3.85,0,0,1-.26-5.46h0a3.85,3.85,0,0,1,5.46-.26h0a3.86,3.86,0,0,1,.26,5.46h0a3.85,3.85,0,0,1-2.86,1.27h0A3.82,3.82,0,0,1,1058.52,1562.81Zm799.59-.86a3.87,3.87,0,0,1,.25-5.47h0a3.86,3.86,0,0,1,5.46.25h0a3.88,3.88,0,0,1-.24,5.47h0a3.86,3.86,0,0,1-2.61,1h0A3.88,3.88,0,0,1,1858.11,1562Zm-819.58-18.18a3.86,3.86,0,0,1,0-5.47h0a3.87,3.87,0,0,1,5.47,0h0a3.86,3.86,0,0,1,0,5.46h0a3.85,3.85,0,0,1-2.74,1.14h0A3.87,3.87,0,0,1,1038.53,1543.77Zm839.53-.64a3.86,3.86,0,0,1,0-5.46h0a3.85,3.85,0,0,1,5.46,0h0a3.85,3.85,0,0,1,0,5.47h0a3.81,3.81,0,0,1-2.72,1.13h0A3.82,3.82,0,0,1,1878.06,1543.13Zm-858.62-19.28a3.88,3.88,0,0,1,.24-5.47h0a3.87,3.87,0,0,1,5.47.24h0a3.86,3.86,0,0,1-.24,5.46h0a3.83,3.83,0,0,1-2.62,1h0A3.86,3.86,0,0,1,1019.44,1523.85Zm877.69-.43a3.86,3.86,0,0,1-.26-5.46h0a3.87,3.87,0,0,1,5.47-.26h0a3.87,3.87,0,0,1,.25,5.47h0a3.84,3.84,0,0,1-2.86,1.26h0A3.82,3.82,0,0,1,1897.13,1523.42Zm-895.84-20.35a3.87,3.87,0,0,1,.49-5.45h0a3.86,3.86,0,0,1,5.45.49h0a3.87,3.87,0,0,1-.49,5.45h0a3.85,3.85,0,0,1-2.47.89h0A3.88,3.88,0,0,1,1001.29,1503.07Zm914-.22a3.86,3.86,0,0,1-.51-5.45h0a3.87,3.87,0,0,1,5.45-.5h0a3.87,3.87,0,0,1,.5,5.45h0a3.85,3.85,0,0,1-3,1.39h0A3.8,3.8,0,0,1,1915.28,1502.85Zm-931.17-21.37h0a3.88,3.88,0,0,1,.75-5.42h0a3.86,3.86,0,0,1,5.42.74h0a3.87,3.87,0,0,1-.74,5.42h0a3.86,3.86,0,0,1-2.34.79h0A3.89,3.89,0,0,1,984.11,1481.48Zm948.35,0a3.88,3.88,0,0,1-.75-5.43h0a3.87,3.87,0,0,1,5.42-.75h0a3.87,3.87,0,0,1,.75,5.42h0a3.86,3.86,0,0,1-3.09,1.54h0A3.91,3.91,0,0,1,1932.46,1481.47ZM968,1459.13a3.87,3.87,0,0,1,1-5.38h0a3.86,3.86,0,0,1,5.38,1h0a3.86,3.86,0,0,1-1,5.37h0a3.9,3.9,0,0,1-2.2.68h0A3.83,3.83,0,0,1,968,1459.13Zm980.69.17a3.87,3.87,0,0,1-1-5.38h0a3.88,3.88,0,0,1,5.39-1h0a3.88,3.88,0,0,1,1,5.38h0a3.88,3.88,0,0,1-3.2,1.69h0A3.85,3.85,0,0,1,1948.65,1459.3Zm-995.81-23.23h0a3.88,3.88,0,0,1,1.25-5.33h0a3.85,3.85,0,0,1,5.32,1.24h0a3.86,3.86,0,0,1-1.24,5.33h0a3.88,3.88,0,0,1-2,.58h0A3.87,3.87,0,0,1,952.84,1436.07Zm1011,.34a3.86,3.86,0,0,1-1.24-5.32h0a3.85,3.85,0,0,1,5.32-1.24h0a3.85,3.85,0,0,1,1.25,5.32h0a3.86,3.86,0,0,1-3.29,1.83h0A3.82,3.82,0,0,1,1963.8,1436.41Zm-1025-24.06a3.87,3.87,0,0,1,1.48-5.27h0a3.86,3.86,0,0,1,5.26,1.48h0a3.87,3.87,0,0,1-1.49,5.27h0a3.89,3.89,0,0,1-1.89.49h0A3.86,3.86,0,0,1,938.82,1412.35Zm1039.07.5a3.87,3.87,0,0,1-1.49-5.27h0a3.87,3.87,0,0,1,5.26-1.49h0a3.87,3.87,0,0,1,1.49,5.26h0a3.85,3.85,0,0,1-3.38,2h0A3.85,3.85,0,0,1,1977.89,1412.85ZM925.9,1388a3.88,3.88,0,0,1,1.73-5.19h0a3.86,3.86,0,0,1,5.19,1.72h0a3.86,3.86,0,0,1-1.73,5.19h0a3.68,3.68,0,0,1-1.73.42h0A3.89,3.89,0,0,1,925.9,1388Zm1065,.65a3.87,3.87,0,0,1-1.73-5.19h0a3.85,3.85,0,0,1,5.19-1.73h0a3.87,3.87,0,0,1,1.73,5.18h0a3.88,3.88,0,0,1-3.47,2.15h0A3.92,3.92,0,0,1,1990.87,1388.65ZM914.13,1363.1a3.87,3.87,0,0,1,2-5.11h0a3.87,3.87,0,0,1,5.11,2h0a3.86,3.86,0,0,1-2,5.1h0a3.74,3.74,0,0,1-1.56.33h0A3.86,3.86,0,0,1,914.13,1363.1Zm1088.59.76a3.86,3.86,0,0,1-2-5.1h0a3.87,3.87,0,0,1,5.11-2h0a3.86,3.86,0,0,1,2,5.09h0a3.89,3.89,0,0,1-3.55,2.31h0A3.77,3.77,0,0,1,2002.72,1363.86ZM903.53,1337.68h0a3.87,3.87,0,0,1,2.19-5h0a3.88,3.88,0,0,1,5,2.21h0a3.87,3.87,0,0,1-2.2,5h0a3.87,3.87,0,0,1-1.4.27h0A3.87,3.87,0,0,1,903.53,1337.68Zm1109.88.87a3.87,3.87,0,0,1-2.21-5h0a3.87,3.87,0,0,1,5-2.21h0a3.87,3.87,0,0,1,2.21,5h0a3.88,3.88,0,0,1-3.61,2.47h0A4,4,0,0,1,2013.41,1338.55Zm-1119.32-26.8h0a3.87,3.87,0,0,1,2.43-4.9h0a3.86,3.86,0,0,1,4.9,2.42h0a3.86,3.86,0,0,1-2.42,4.9h0a3.59,3.59,0,0,1-1.24.21h0A3.89,3.89,0,0,1,894.09,1311.75Zm1128.82,1a3.86,3.86,0,0,1-2.44-4.89h0a3.88,3.88,0,0,1,4.89-2.44h0a3.87,3.87,0,0,1,2.44,4.9h0a3.85,3.85,0,0,1-3.66,2.64h0A3.73,3.73,0,0,1,2022.91,1312.75Zm-1137-27.36a3.87,3.87,0,0,1,2.65-4.78h0a3.86,3.86,0,0,1,4.78,2.66h0a3.86,3.86,0,0,1-2.65,4.78h0a3.89,3.89,0,0,1-1.07.15h0A3.86,3.86,0,0,1,885.88,1285.39Zm1145.3,1.21a3.86,3.86,0,0,1-2.67-4.77h0a3.87,3.87,0,0,1,4.78-2.67h0a3.86,3.86,0,0,1,2.66,4.78h0a3.86,3.86,0,0,1-3.72,2.81h0A3.46,3.46,0,0,1,2031.18,1286.6ZM878.89,1258.69a3.87,3.87,0,0,1,2.88-4.65h0a3.86,3.86,0,0,1,4.66,2.87h0a3.88,3.88,0,0,1-2.88,4.66h0a3.86,3.86,0,0,1-.89.1h0A3.89,3.89,0,0,1,878.89,1258.69Zm1159.33,1.41a3.87,3.87,0,0,1-2.89-4.64h0a3.87,3.87,0,0,1,4.65-2.89h0a3.88,3.88,0,0,1,2.89,4.65h0a3.87,3.87,0,0,1-3.77,3h0A3.77,3.77,0,0,1,2038.22,1260.1ZM873.16,1231.7a3.87,3.87,0,0,1,3.09-4.52h0a3.87,3.87,0,0,1,4.52,3.08h0a3.88,3.88,0,0,1-3.09,4.52h0a3.51,3.51,0,0,1-.72.07h0A3.88,3.88,0,0,1,873.16,1231.7ZM2044,1233.3a3.86,3.86,0,0,1-3.09-4.51h0a3.85,3.85,0,0,1,4.51-3.09h0a3.86,3.86,0,0,1,3.09,4.51h0a3.86,3.86,0,0,1-3.8,3.16h0A4.38,4.38,0,0,1,2044,1233.3ZM868.69,1204.46h0a3.86,3.86,0,0,1,3.29-4.37h0a3.88,3.88,0,0,1,4.37,3.3h0a3.87,3.87,0,0,1-3.29,4.36h0a3.5,3.5,0,0,1-.54,0h0A3.87,3.87,0,0,1,868.69,1204.46Zm1179.89,1.8a3.87,3.87,0,0,1-3.31-4.36h0a3.87,3.87,0,0,1,4.36-3.3h0a3.87,3.87,0,0,1,3.31,4.36h0a3.87,3.87,0,0,1-3.83,3.34h0A4.73,4.73,0,0,1,2048.58,1206.26ZM865.47,1177.05a3.87,3.87,0,0,1,3.49-4.21h0a3.87,3.87,0,0,1,4.22,3.49h0a3.88,3.88,0,0,1-3.49,4.22h-.37A3.87,3.87,0,0,1,865.47,1177.05Zm1186.41,2a3.87,3.87,0,0,1-3.5-4.2h0a3.86,3.86,0,0,1,4.2-3.5h0a3.86,3.86,0,0,1,3.5,4.2h0a3.87,3.87,0,0,1-3.84,3.52h0ZM863.53,1149.53h0a3.85,3.85,0,0,1,3.67-4h0a3.86,3.86,0,0,1,4,3.68h0a3.87,3.87,0,0,1-3.68,4h-.19A3.85,3.85,0,0,1,863.53,1149.53Zm1190.4,2.16a3.87,3.87,0,0,1-3.7-4h0a3.89,3.89,0,0,1,4.05-3.7h0a3.87,3.87,0,0,1,3.68,4h0a3.86,3.86,0,0,1-3.86,3.69h-.17Zm-1191.1-29.76a3.86,3.86,0,0,1,3.86-3.87h0a3.86,3.86,0,0,1,3.88,3.85h0a3.89,3.89,0,0,1-3.86,3.89h0A3.88,3.88,0,0,1,862.83,1121.93Zm1188-1.51a3.84,3.84,0,0,1,.3-1.48h0a3.89,3.89,0,0,1-.31-1.49h0a3.89,3.89,0,0,1,3.86-3.89h0a3.88,3.88,0,0,1,3.88,3.85h0a3.94,3.94,0,0,1-.29,1.51h0a3.94,3.94,0,0,1,.3,1.5h0a3.87,3.87,0,0,1-3.87,3.87h0A3.87,3.87,0,0,1,2050.85,1120.42ZM867.09,1098.37a3.85,3.85,0,0,1-3.7-4h0a3.86,3.86,0,0,1,4-3.7h0a3.87,3.87,0,0,1,3.7,4h0a3.89,3.89,0,0,1-3.87,3.7h-.16Zm1183-8.16a3.88,3.88,0,0,1,3.67-4.06h0a3.88,3.88,0,0,1,4.06,3.68h0a3.86,3.86,0,0,1-3.67,4.05h-.2A3.87,3.87,0,0,1,2050.09,1090.21ZM868.71,1071a3.87,3.87,0,0,1-3.51-4.19h0a3.87,3.87,0,0,1,4.19-3.51h0a3.87,3.87,0,0,1,3.52,4.19h0a3.88,3.88,0,0,1-3.86,3.53h0A1.94,1.94,0,0,1,868.71,1071Zm1179.39-8a3.87,3.87,0,0,1,3.48-4.22h0a3.87,3.87,0,0,1,4.22,3.48h0a3.86,3.86,0,0,1-3.48,4.22h0a2.3,2.3,0,0,1-.37,0h0A3.86,3.86,0,0,1,2048.1,1063ZM871.59,1043.73a3.87,3.87,0,0,1-3.32-4.35h0a3.87,3.87,0,0,1,4.36-3.31h0a3.85,3.85,0,0,1,3.31,4.35h0a3.87,3.87,0,0,1-3.83,3.35h0A3,3,0,0,1,871.59,1043.73ZM2044.86,1036a3.87,3.87,0,0,1,3.28-4.38h0a3.87,3.87,0,0,1,4.38,3.28h0a3.86,3.86,0,0,1-3.28,4.37h0a3.51,3.51,0,0,1-.55,0h0A3.87,3.87,0,0,1,2044.86,1036ZM875.72,1016.62a3.87,3.87,0,0,1-3.11-4.5h0a3.88,3.88,0,0,1,4.51-3.11h0a3.88,3.88,0,0,1,3.1,4.51h0a3.86,3.86,0,0,1-3.8,3.17h0A3.33,3.33,0,0,1,875.72,1016.62Zm1164.66-7.49h0a3.88,3.88,0,0,1,3.08-4.53h0a3.86,3.86,0,0,1,4.52,3.08h0a3.86,3.86,0,0,1-3.07,4.52h0a3.68,3.68,0,0,1-.73.07h0A3.86,3.86,0,0,1,2040.38,1009.13ZM881.1,989.74a3.87,3.87,0,0,1-2.89-4.64h0a3.87,3.87,0,0,1,4.64-2.9h0a3.88,3.88,0,0,1,2.9,4.64h0a3.88,3.88,0,0,1-3.77,3h0A4.48,4.48,0,0,1,881.1,989.74Zm1153.55-7.24h0a3.87,3.87,0,0,1,2.86-4.67h0a3.86,3.86,0,0,1,4.66,2.87h0a3.87,3.87,0,0,1-2.86,4.66h0a4,4,0,0,1-.9.1h0A3.86,3.86,0,0,1,2034.65,982.5ZM887.73,963.13a3.87,3.87,0,0,1-2.68-4.77h0a3.87,3.87,0,0,1,4.78-2.68h0a3.87,3.87,0,0,1,2.67,4.77h0a3.87,3.87,0,0,1-3.72,2.82h0A4.21,4.21,0,0,1,887.73,963.13Zm1140-7h0a3.89,3.89,0,0,1,2.64-4.8h0a3.87,3.87,0,0,1,4.79,2.65h0a3.87,3.87,0,0,1-2.64,4.79h0a3.66,3.66,0,0,1-1.08.15h0A3.87,3.87,0,0,1,2027.69,956.15Zm-1132.1-19.3a3.86,3.86,0,0,1-2.46-4.88h0a3.87,3.87,0,0,1,4.89-2.46h0a3.86,3.86,0,0,1,2.44,4.89h0a3.85,3.85,0,0,1-3.66,2.65h0A3.67,3.67,0,0,1,895.59,936.85Zm1123.93-6.68a3.87,3.87,0,0,1,2.42-4.91h0a3.86,3.86,0,0,1,4.9,2.42h0a3.86,3.86,0,0,1-2.41,4.9h0a3.7,3.7,0,0,1-1.25.22h0A3.87,3.87,0,0,1,2019.52,930.17ZM904.68,910.91a3.86,3.86,0,0,1-2.22-5h0a3.87,3.87,0,0,1,5-2.22h0a3.86,3.86,0,0,1,2.22,5h0a3.87,3.87,0,0,1-3.61,2.48h0A3.8,3.8,0,0,1,904.68,910.91Zm1105.46-6.31a3.87,3.87,0,0,1,2.19-5h0a3.87,3.87,0,0,1,5,2.18h0a3.87,3.87,0,0,1-2.18,5h0a4,4,0,0,1-1.42.27h0A3.87,3.87,0,0,1,2010.14,904.6ZM915,885.44a3.87,3.87,0,0,1-2-5.1h0a3.86,3.86,0,0,1,5.09-2h0a3.87,3.87,0,0,1,2,5.1h0a3.86,3.86,0,0,1-3.54,2.31h0A3.93,3.93,0,0,1,915,885.44Zm1084.65-5.9a3.87,3.87,0,0,1,2-5.11h0a3.87,3.87,0,0,1,5.11,2h0a3.87,3.87,0,0,1-2,5.11h0a3.88,3.88,0,0,1-1.58.34h0A3.86,3.86,0,0,1,1999.62,879.54ZM926.44,860.47a3.88,3.88,0,0,1-1.76-5.19h0a3.88,3.88,0,0,1,5.19-1.75h0a3.87,3.87,0,0,1,1.74,5.19h0a3.86,3.86,0,0,1-3.46,2.15h0A3.86,3.86,0,0,1,926.44,860.47ZM1987.93,855a3.88,3.88,0,0,1,1.71-5.2h0a3.87,3.87,0,0,1,5.2,1.72h0a3.85,3.85,0,0,1-1.71,5.19h0a3.75,3.75,0,0,1-1.74.42h0A3.88,3.88,0,0,1,1987.93,855ZM939,836.07a3.87,3.87,0,0,1-1.5-5.26h0a3.87,3.87,0,0,1,5.26-1.51h0a3.87,3.87,0,0,1,1.51,5.26h0a3.88,3.88,0,0,1-3.39,2h0A3.87,3.87,0,0,1,939,836.07ZM1975.13,831a3.87,3.87,0,0,1,1.47-5.27h0a3.84,3.84,0,0,1,5.26,1.47h0a3.86,3.86,0,0,1-1.47,5.27h0a3.89,3.89,0,0,1-1.89.49h0A3.88,3.88,0,0,1,1975.13,831ZM952.75,812.28a3.87,3.87,0,0,1-1.26-5.33h0a3.89,3.89,0,0,1,5.33-1.26h0a3.87,3.87,0,0,1,1.25,5.33h0a3.84,3.84,0,0,1-3.29,1.84h0A3.87,3.87,0,0,1,952.75,812.28Zm1008.47-4.67a3.88,3.88,0,0,1,1.22-5.33h0a3.87,3.87,0,0,1,5.34,1.22h0a3.86,3.86,0,0,1-1.23,5.33h0a3.86,3.86,0,0,1-2,.59h0A3.87,3.87,0,0,1,1961.22,807.61ZM967.55,789.16a3.86,3.86,0,0,1-1-5.38h0a3.87,3.87,0,0,1,5.37-1h0a3.87,3.87,0,0,1,1,5.38h0a3.89,3.89,0,0,1-3.2,1.68h0A3.83,3.83,0,0,1,967.55,789.16Zm978.7-4.28a3.86,3.86,0,0,1,1-5.38h0a3.86,3.86,0,0,1,5.38,1h0a3.87,3.87,0,0,1-1,5.38h0a3.89,3.89,0,0,1-2.2.69h0A3.85,3.85,0,0,1,1946.25,784.88ZM983.4,766.75a3.86,3.86,0,0,1-.77-5.42h0a3.88,3.88,0,0,1,5.42-.76h0a3.87,3.87,0,0,1,.76,5.42h0a3.89,3.89,0,0,1-3.09,1.54h0A3.79,3.79,0,0,1,983.4,766.75Zm946.84-3.88a3.87,3.87,0,0,1,.73-5.43h0a3.87,3.87,0,0,1,5.42.73h0a3.88,3.88,0,0,1-.73,5.43h0a3.88,3.88,0,0,1-2.34.79h0A3.86,3.86,0,0,1,1930.24,762.87Zm-930-17.77a3.86,3.86,0,0,1-.51-5.45h0a3.87,3.87,0,0,1,5.44-.51h0a3.86,3.86,0,0,1,.51,5.45h0a3.86,3.86,0,0,1-3,1.4h0A3.84,3.84,0,0,1,1000.25,745.1Zm913-3.5a3.86,3.86,0,0,1,.47-5.45h0a3.87,3.87,0,0,1,5.46.48h0a3.87,3.87,0,0,1-.48,5.44h0a3.83,3.83,0,0,1-2.49.91h0A3.84,3.84,0,0,1,1913.24,741.6Zm-895.16-17.35a3.87,3.87,0,0,1-.27-5.46h0a3.85,3.85,0,0,1,5.47-.26h0a3.85,3.85,0,0,1,.26,5.45h0a3.83,3.83,0,0,1-2.87,1.28h0A3.82,3.82,0,0,1,1018.08,724.25Zm877.18-3.12h0a3.87,3.87,0,0,1,.24-5.47h0a3.86,3.86,0,0,1,5.46.23h0a3.87,3.87,0,0,1-.23,5.47h0a3.86,3.86,0,0,1-2.62,1h0A3.88,3.88,0,0,1,1895.26,721.13Zm-858.42-16.88a3.89,3.89,0,0,1,0-5.48h0a3.89,3.89,0,0,1,5.48,0h0a3.87,3.87,0,0,1,0,5.47h0a3.86,3.86,0,0,1-2.74,1.14h0A3.84,3.84,0,0,1,1036.84,704.25Zm839.53-2.75h0a3.87,3.87,0,0,1,0-5.47h0a3.86,3.86,0,0,1,5.47,0h0a3.86,3.86,0,0,1,0,5.47h0a3.85,3.85,0,0,1-2.74,1.14h0A3.88,3.88,0,0,1,1876.37,701.5Zm-819.88-16.37a3.87,3.87,0,0,1,.24-5.47h0a3.88,3.88,0,0,1,5.47.24h0a3.87,3.87,0,0,1-.24,5.46h0a3.86,3.86,0,0,1-2.61,1h0A3.88,3.88,0,0,1,1056.49,685.13Zm800.1-2.37a3.88,3.88,0,0,1-.27-5.47h0a3.87,3.87,0,0,1,5.47-.26h0a3.86,3.86,0,0,1,.27,5.45h0a3.85,3.85,0,0,1-2.87,1.28h0A3.9,3.9,0,0,1,1856.59,682.76ZM1077,666.93a3.86,3.86,0,0,1,.49-5.44h0a3.88,3.88,0,0,1,5.45.49h0a3.87,3.87,0,0,1-.49,5.45h0a3.81,3.81,0,0,1-2.48.9h0A3.86,3.86,0,0,1,1077,666.93Zm759-2a3.84,3.84,0,0,1-.52-5.44h0a3.86,3.86,0,0,1,5.44-.52h0a3.86,3.86,0,0,1,.52,5.44h0a3.86,3.86,0,0,1-3,1.41h0A3.8,3.8,0,0,1,1836,664.93Zm-737.67-15.22a3.89,3.89,0,0,1,.74-5.43h0a3.88,3.88,0,0,1,5.43.74h0a3.88,3.88,0,0,1-.74,5.43h0a3.92,3.92,0,0,1-2.34.78h0A3.88,3.88,0,0,1,1098.31,649.71Zm716.24-1.63a3.86,3.86,0,0,1-.77-5.41h0a3.86,3.86,0,0,1,5.41-.78h0a3.88,3.88,0,0,1,.78,5.42h0a3.87,3.87,0,0,1-3.1,1.55h0A3.88,3.88,0,0,1,1814.55,648.08Zm-694.16-14.6a3.87,3.87,0,0,1,1-5.38h0a3.86,3.86,0,0,1,5.38,1h0a3.86,3.86,0,0,1-1,5.38h0a3.76,3.76,0,0,1-2.19.69h0A3.91,3.91,0,0,1,1120.39,633.48Zm672-1.25h0a3.87,3.87,0,0,1-1-5.37h0a3.86,3.86,0,0,1,5.38-1h0a3.87,3.87,0,0,1,1,5.37h0a3.84,3.84,0,0,1-3.2,1.7h0A3.88,3.88,0,0,1,1792.37,632.23Zm-649.18-13.94a3.88,3.88,0,0,1,1.23-5.34h0a3.86,3.86,0,0,1,5.33,1.24h0a3.86,3.86,0,0,1-1.23,5.33h0a3.83,3.83,0,0,1-2,.59h0A3.88,3.88,0,0,1,1143.19,618.29Zm626.29-.89a3.87,3.87,0,0,1-1.27-5.32h0a3.88,3.88,0,0,1,5.33-1.27h0a3.87,3.87,0,0,1,1.26,5.32h0a3.86,3.86,0,0,1-3.3,1.85h0A3.86,3.86,0,0,1,1769.48,617.4Zm-602.83-13.24a3.88,3.88,0,0,1,1.48-5.27h0a3.88,3.88,0,0,1,5.27,1.48h0a3.86,3.86,0,0,1-1.48,5.27h0a3.82,3.82,0,0,1-1.89.5h0A3.87,3.87,0,0,1,1166.65,604.16Zm579.27-.51a3.86,3.86,0,0,1-1.51-5.25h0a3.87,3.87,0,0,1,5.26-1.52h0a3.87,3.87,0,0,1,1.51,5.26h0a3.86,3.86,0,0,1-3.39,2h0A3.86,3.86,0,0,1,1745.92,603.65Zm-555.18-12.51a3.86,3.86,0,0,1,1.71-5.19h0a3.87,3.87,0,0,1,5.2,1.72h0a3.89,3.89,0,0,1-1.71,5.2h0a3.91,3.91,0,0,1-1.74.4h0A3.88,3.88,0,0,1,1190.74,591.14Zm531-.14h0a3.86,3.86,0,0,1-1.75-5.18h0a3.85,3.85,0,0,1,5.17-1.75h0a3.86,3.86,0,0,1,1.76,5.17h0a3.86,3.86,0,0,1-3.47,2.16h0A3.76,3.76,0,0,1,1721.75,591Zm-506.36-11.74a3.86,3.86,0,0,1,2-5.11h0a3.86,3.86,0,0,1,5.1,2h0a3.85,3.85,0,0,1-2,5.1h0a3.88,3.88,0,0,1-1.58.34h0A3.87,3.87,0,0,1,1215.39,579.26Zm481.61.23h0a3.87,3.87,0,0,1-2-5.1h0a3.86,3.86,0,0,1,5.09-2h0a3.86,3.86,0,0,1,2,5.09h0a3.87,3.87,0,0,1-3.54,2.32h0A3.93,3.93,0,0,1,1697,579.49Zm-456.45-11a3.89,3.89,0,0,1,2.2-5h0a3.87,3.87,0,0,1,5,2.2h0a3.87,3.87,0,0,1-2.19,5h0a3.9,3.9,0,0,1-1.41.26h0A3.86,3.86,0,0,1,1240.55,568.53Zm431.19.6a3.88,3.88,0,0,1-2.23-5h0a3.89,3.89,0,0,1,5-2.23h0a3.89,3.89,0,0,1,2.23,5h0a3.9,3.9,0,0,1-3.62,2.49h0A4,4,0,0,1,1671.74,569.13ZM1266.25,559a3.87,3.87,0,0,1,2.42-4.91h0a3.87,3.87,0,0,1,4.91,2.42h0a3.88,3.88,0,0,1-2.42,4.91h0a3.83,3.83,0,0,1-1.24.2h0A3.88,3.88,0,0,1,1266.25,559ZM1646,560a3.87,3.87,0,0,1-2.45-4.89h0a3.86,3.86,0,0,1,4.88-2.46h0a3.87,3.87,0,0,1,2.46,4.89h0a3.85,3.85,0,0,1-3.67,2.65h0A4,4,0,0,1,1646,560Zm-353.65-9.37a3.86,3.86,0,0,1,2.64-4.79h0a3.86,3.86,0,0,1,4.79,2.65h0a3.86,3.86,0,0,1-2.65,4.78h0a3.65,3.65,0,0,1-1.07.16h0A3.86,3.86,0,0,1,1292.37,550.59ZM1620,552h0a3.86,3.86,0,0,1-2.69-4.76h0a3.86,3.86,0,0,1,4.77-2.68h0a3.86,3.86,0,0,1,2.68,4.76h0a3.86,3.86,0,0,1-3.72,2.83h0A3.68,3.68,0,0,1,1620,552Zm-301.13-8.57a3.88,3.88,0,0,1,2.87-4.66h0a3.86,3.86,0,0,1,4.65,2.87h0a3.86,3.86,0,0,1-2.86,4.66h0a4,4,0,0,1-.9.11h0A3.88,3.88,0,0,1,1318.84,543.44Zm274.72,1.85a3.85,3.85,0,0,1-2.89-4.64h0a3.86,3.86,0,0,1,4.63-2.9h0a3.89,3.89,0,0,1,2.91,4.64h0a3.88,3.88,0,0,1-3.77,3h0A3.83,3.83,0,0,1,1593.56,545.29Zm-247.94-7.75a3.86,3.86,0,0,1,3.08-4.52h0a3.86,3.86,0,0,1,4.52,3.08h0a3.89,3.89,0,0,1-3.08,4.52h0a4.59,4.59,0,0,1-.73.06h0A3.85,3.85,0,0,1,1345.62,537.54Zm221.26,2.26a3.87,3.87,0,0,1-3.11-4.5h0a3.87,3.87,0,0,1,4.5-3.11h0a3.86,3.86,0,0,1,3.11,4.5h0a3.86,3.86,0,0,1-3.8,3.18h0A3.39,3.39,0,0,1,1566.88,539.8Zm-194.24-6.92a3.86,3.86,0,0,1,3.28-4.37h0a3.86,3.86,0,0,1,4.38,3.28h0a3.88,3.88,0,0,1-3.29,4.38h0l-.54,0h0A3.86,3.86,0,0,1,1372.64,532.88ZM1540,535.56h0a3.88,3.88,0,0,1-3.33-4.35h0a3.88,3.88,0,0,1,4.36-3.32h0a3.87,3.87,0,0,1,3.32,4.35h0a3.88,3.88,0,0,1-3.84,3.35h0Zm-140.12-6.08a3.86,3.86,0,0,1,3.48-4.22h0a3.87,3.87,0,0,1,4.22,3.49h0a3.87,3.87,0,0,1-3.49,4.21h0l-.37,0h0A3.86,3.86,0,0,1,1399.85,529.48Zm113.05,3.07a3.86,3.86,0,0,1-3.52-4.19h0a3.88,3.88,0,0,1,4.19-3.52h0a3.86,3.86,0,0,1,3.52,4.18h0a3.86,3.86,0,0,1-3.85,3.54h0A1.94,1.94,0,0,1,1512.9,532.55Zm-85.72-5.22a3.87,3.87,0,0,1,3.67-4.06h0a3.88,3.88,0,0,1,4.06,3.68h0a3.87,3.87,0,0,1-3.68,4H1431A3.87,3.87,0,0,1,1427.18,527.33Zm58.53,3.47h0a3.87,3.87,0,0,1-3.7-4h0a3.87,3.87,0,0,1,4-3.7h0a3.86,3.86,0,0,1,3.7,4h0a3.87,3.87,0,0,1-3.86,3.71h-.17Zm-31.12-4.37a3.87,3.87,0,0,1,3.85-3.89h0a3.88,3.88,0,0,1,3.89,3.86h0a3.87,3.87,0,0,1-3.86,3.88h0A3.87,3.87,0,0,1,1454.59,526.43Z"/><g class="cls-5"><path class="cls-1" d="M1460.71,578.61v541.81L1201.09,644.75A539.48,539.48,0,0,1,1460.71,578.61Z"/></g><g class="cls-5"><path class="cls-1" d="M1460.71,1120.42,1201.1,1596.1A544.29,544.29,0,0,1,985,1380Z"/></g><g class="cls-6"><path class="cls-1" d="M1936.39,1380a544.42,544.42,0,0,1-216.06,216.06l-259.62-475.68Z"/></g><g class="cls-5"><path class="cls-1" d="M1936.39,860.81l-475.68,259.61,259.62-475.67A544.36,544.36,0,0,1,1936.39,860.81Z"/></g><g class="cls-6"><path class="cls-1" d="M1460.71,1120.42,985,860.8a544.39,544.39,0,0,1,216.06-216Z"/></g><g class="cls-5"><path class="cls-1" d="M1460.71,1120.42H918.9A539.48,539.48,0,0,1,985,860.8Z"/></g><g class="cls-6"><path class="cls-1" d="M1460.71,1120.42,985,1380a539.34,539.34,0,0,1-66.14-259.62Z"/></g><g class="cls-6"><path class="cls-1" d="M2002.52,1120.42H1460.71l475.68-259.61A539.41,539.41,0,0,1,2002.52,1120.42Z"/></g><g class="cls-5"><path class="cls-1" d="M2002.52,1120.42A539.45,539.45,0,0,1,1936.39,1380l-475.68-259.62Z"/></g><g class="cls-6"><path class="cls-1" d="M1460.71,1120.42v541.81a539.41,539.41,0,0,1-259.61-66.13Z"/></g><g class="cls-5"><path class="cls-1" d="M1720.33,1596.1a539.45,539.45,0,0,1-259.62,66.13V1120.42Z"/></g><g class="cls-6"><path class="cls-1" d="M1720.33,644.75l-259.62,475.67V578.61A539.46,539.46,0,0,1,1720.33,644.75Z"/></g><path class="cls-4" d="M1786.5,942.61a371.69,371.69,0,1,0,45.29,177.81A372.75,372.75,0,0,0,1786.5,942.61Z"/><path class="cls-1" d="M1469,1459.76a3.85,3.85,0,0,1,3.73-4h0a3.86,3.86,0,0,1,4,3.73h0a3.87,3.87,0,0,1-3.73,4h-.14A3.86,3.86,0,0,1,1469,1459.76Zm-23.73,3.61h0a3.87,3.87,0,0,1-3.69-4h0a3.86,3.86,0,0,1,4-3.69h0a3.87,3.87,0,0,1,3.69,4h0a3.87,3.87,0,0,1-3.86,3.7h-.18Zm51.08-5.36a3.87,3.87,0,0,1,3.4-4.29h0a3.86,3.86,0,0,1,4.29,3.4h0a3.87,3.87,0,0,1-3.4,4.29h0l-.45,0h0A3.88,3.88,0,0,1,1496.36,1458Zm-78.7,3a3.87,3.87,0,0,1-3.36-4.32h0a3.88,3.88,0,0,1,4.32-3.36h0a3.88,3.88,0,0,1,3.36,4.32h0a3.86,3.86,0,0,1-3.83,3.39h0A4,4,0,0,1,1417.66,1461Zm105.83-7a3.88,3.88,0,0,1,3-4.55h0a3.87,3.87,0,0,1,4.55,3h0a3.86,3.86,0,0,1-3,4.55h0a3.22,3.22,0,0,1-.76.08h0A3.87,3.87,0,0,1,1523.49,1454.06Zm-133.18,2.42a3.88,3.88,0,0,1-3-4.58h0a3.86,3.86,0,0,1,4.58-3h0a3.87,3.87,0,0,1,3,4.57h0a3.87,3.87,0,0,1-3.79,3.08h0A3.59,3.59,0,0,1,1390.31,1456.48Zm159.9-8.55a3.88,3.88,0,0,1,2.66-4.78h0a3.89,3.89,0,0,1,4.79,2.66h0a3.89,3.89,0,0,1-2.66,4.79h0a4.35,4.35,0,0,1-1.06.14h0A3.88,3.88,0,0,1,1550.21,1447.93Zm-186.79,1.79a3.86,3.86,0,0,1-2.62-4.8h0a3.87,3.87,0,0,1,4.81-2.62h0a3.88,3.88,0,0,1,2.61,4.81h0a3.87,3.87,0,0,1-3.7,2.77h0A3.75,3.75,0,0,1,1363.42,1449.72Zm212.93-10.07a3.87,3.87,0,0,1,2.26-5h0a3.87,3.87,0,0,1,5,2.27h0a3.87,3.87,0,0,1-2.27,5h0a4,4,0,0,1-1.36.24h0A3.87,3.87,0,0,1,1576.35,1439.65Zm-239.19,1.15h0a3.85,3.85,0,0,1-2.21-5h0a3.86,3.86,0,0,1,5-2.22h0a3.87,3.87,0,0,1,2.21,5h0a3.87,3.87,0,0,1-3.61,2.48h0A3.8,3.8,0,0,1,1337.16,1440.8Zm264.55-11.52a3.87,3.87,0,0,1,1.85-5.15h0a3.87,3.87,0,0,1,5.15,1.85h0a3.87,3.87,0,0,1-1.85,5.15h0a3.88,3.88,0,0,1-1.65.37h0A3.87,3.87,0,0,1,1601.71,1429.28Zm-290,.49a3.87,3.87,0,0,1-1.8-5.17h0a3.87,3.87,0,0,1,5.16-1.8h0a3.86,3.86,0,0,1,1.8,5.16h0a3.86,3.86,0,0,1-3.49,2.19h0A3.84,3.84,0,0,1,1311.7,1429.77Zm314.45-12.89a3.87,3.87,0,0,1,1.43-5.28h0a3.86,3.86,0,0,1,5.28,1.43h0a3.87,3.87,0,0,1-1.43,5.28h0a3.92,3.92,0,0,1-1.92.51h0A3.86,3.86,0,0,1,1626.15,1416.88Zm-338.93-.17a3.88,3.88,0,0,1-1.38-5.3h0a3.88,3.88,0,0,1,5.3-1.38h0a3.89,3.89,0,0,1,1.38,5.3h0a3.89,3.89,0,0,1-3.34,1.9h0A3.84,3.84,0,0,1,1287.22,1416.71Zm362.3-14.16a3.86,3.86,0,0,1,1-5.38h0a3.86,3.86,0,0,1,5.38,1h0a3.86,3.86,0,0,1-1,5.38h0a3.91,3.91,0,0,1-2.19.67h0A3.83,3.83,0,0,1,1649.52,1402.55Zm-385.64-.84a3.88,3.88,0,0,1-1-5.39h0a3.88,3.88,0,0,1,5.39-1h0a3.88,3.88,0,0,1,1,5.39h0a3.84,3.84,0,0,1-3.17,1.65h0A3.89,3.89,0,0,1,1263.88,1401.71Zm407.77-15.33a3.88,3.88,0,0,1,.57-5.45h0a3.86,3.86,0,0,1,5.43.56h0a3.86,3.86,0,0,1-.56,5.44h0a3.84,3.84,0,0,1-2.44.87h0A3.9,3.9,0,0,1,1671.65,1386.38Zm-429.82-1.49h0a3.87,3.87,0,0,1-.51-5.45h0a3.88,3.88,0,0,1,5.45-.51h0a3.87,3.87,0,0,1,.52,5.45h0a3.9,3.9,0,0,1-3,1.4h0A3.9,3.9,0,0,1,1241.83,1384.89Zm450.59-16.42a3.87,3.87,0,0,1,.12-5.47h0a3.89,3.89,0,0,1,5.48.12h0a3.88,3.88,0,0,1-.13,5.48h0a3.87,3.87,0,0,1-2.67,1.06h0A3.88,3.88,0,0,1,1692.42,1368.47Zm-471.22-2.12a3.88,3.88,0,0,1-.07-5.47h0a3.87,3.87,0,0,1,5.47-.07h0a3.87,3.87,0,0,1,.07,5.47h0a3.85,3.85,0,0,1-2.77,1.17h0A3.86,3.86,0,0,1,1221.2,1366.35ZM1711.69,1349a3.86,3.86,0,0,1-.32-5.46h0a3.86,3.86,0,0,1,5.46-.32h0a3.86,3.86,0,0,1,.32,5.46h0a3.83,3.83,0,0,1-2.89,1.29h0A3.87,3.87,0,0,1,1711.69,1349Zm-509.56-2.74a3.88,3.88,0,0,1,.37-5.46h0a3.87,3.87,0,0,1,5.46.37h0a3.88,3.88,0,0,1-.37,5.46h0a3.87,3.87,0,0,1-2.55,1h0A3.89,3.89,0,0,1,1202.13,1346.22Zm527.2-18.26a3.86,3.86,0,0,1-.75-5.42h0a3.87,3.87,0,0,1,5.42-.75h0a3.88,3.88,0,0,1,.76,5.42h0a3.88,3.88,0,0,1-3.09,1.53h0A3.84,3.84,0,0,1,1729.33,1328Zm-544.59-3.33h0a3.87,3.87,0,0,1,.81-5.41h0a3.86,3.86,0,0,1,5.41.8h0a3.87,3.87,0,0,1-.81,5.41h0a3.81,3.81,0,0,1-2.3.77h0A3.88,3.88,0,0,1,1184.74,1324.63Zm560.49-19a3.87,3.87,0,0,1-1.19-5.34h0a3.87,3.87,0,0,1,5.34-1.19h0a3.87,3.87,0,0,1,1.18,5.34h0a3.85,3.85,0,0,1-3.26,1.79h0A3.82,3.82,0,0,1,1745.23,1305.61Zm-576.09-3.9a3.87,3.87,0,0,1,1.24-5.33h0a3.86,3.86,0,0,1,5.33,1.24h0a3.87,3.87,0,0,1-1.24,5.33h0a3.88,3.88,0,0,1-2,.58h0A3.86,3.86,0,0,1,1169.14,1301.71ZM1759.27,1282a3.85,3.85,0,0,1-1.61-5.22h0a3.87,3.87,0,0,1,5.22-1.62h0a3.87,3.87,0,0,1,1.62,5.23h0a3.89,3.89,0,0,1-3.43,2.06h0A3.78,3.78,0,0,1,1759.27,1282Zm-603.83-4.43h0a3.86,3.86,0,0,1,1.66-5.21h0a3.86,3.86,0,0,1,5.21,1.66h0a3.86,3.86,0,0,1-1.67,5.21h0a3.7,3.7,0,0,1-1.76.44h0A3.88,3.88,0,0,1,1155.44,1277.61Zm615.92-20.19a3.87,3.87,0,0,1-2-5.08h0a3.86,3.86,0,0,1,5.08-2h0a3.86,3.86,0,0,1,2,5.08h0a3.85,3.85,0,0,1-3.56,2.35h0A4,4,0,0,1,1771.36,1257.42Zm-627.61-4.93a3.87,3.87,0,0,1,2.08-5.07h0a3.86,3.86,0,0,1,5.05,2.09h0a3.86,3.86,0,0,1-2.07,5.06h0a3.92,3.92,0,0,1-1.49.3h0A3.87,3.87,0,0,1,1143.75,1252.49Zm637.67-20.6a3.87,3.87,0,0,1-2.44-4.9h0a3.88,3.88,0,0,1,4.9-2.44h0a3.88,3.88,0,0,1,2.44,4.9h0a3.88,3.88,0,0,1-3.67,2.64h0A3.77,3.77,0,0,1,1781.42,1231.89Zm-647.29-5.38a3.87,3.87,0,0,1,2.48-4.88h0a3.87,3.87,0,0,1,4.88,2.48h0A3.87,3.87,0,0,1,1139,1229h0a3.84,3.84,0,0,1-1.19.19h0A3.87,3.87,0,0,1,1134.13,1226.51Zm655.23-20.87a3.84,3.84,0,0,1-2.83-4.67h0a3.87,3.87,0,0,1,4.68-2.84h0a3.88,3.88,0,0,1,2.83,4.69h0a3.87,3.87,0,0,1-3.76,2.94h0A3.69,3.69,0,0,1,1789.36,1205.64Zm-662.71-5.83h0a3.85,3.85,0,0,1,2.87-4.65h0a3.87,3.87,0,0,1,4.66,2.87h0a3.88,3.88,0,0,1-2.88,4.66h0a3.92,3.92,0,0,1-.89.1h0A3.87,3.87,0,0,1,1126.65,1199.81Zm668.49-21a3.85,3.85,0,0,1-3.2-4.43h0a3.87,3.87,0,0,1,4.44-3.2h0a3.88,3.88,0,0,1,3.2,4.43h0a3.88,3.88,0,0,1-3.82,3.25h0A3.18,3.18,0,0,1,1795.14,1178.84Zm-673.78-6.26a3.88,3.88,0,0,1,3.25-4.41h0a3.87,3.87,0,0,1,4.4,3.25h0a3.88,3.88,0,0,1-3.24,4.41h0a4,4,0,0,1-.59,0h0A3.87,3.87,0,0,1,1121.36,1172.58Zm677.37-20.91a3.87,3.87,0,0,1-3.55-4.17h0a3.86,3.86,0,0,1,4.16-3.54h0a3.86,3.86,0,0,1,3.55,4.16h0a3.86,3.86,0,0,1-3.85,3.56h-.31ZM1118.29,1145h0a3.87,3.87,0,0,1,3.59-4.13h0a3.86,3.86,0,0,1,4.13,3.58h0a3.85,3.85,0,0,1-3.58,4.13h0l-.29,0h0A3.87,3.87,0,0,1,1118.29,1145Zm678-24.61h0a3.86,3.86,0,0,1,3.86-3.87h0a3.87,3.87,0,0,1,3.87,3.87h0a3.87,3.87,0,0,1-3.87,3.87h0A3.86,3.86,0,0,1,1796.26,1120.42Zm-675,.8a3.87,3.87,0,0,1-3.83-3.91h0a3.86,3.86,0,0,1,3.9-3.83h0a3.89,3.89,0,0,1,3.84,3.9h0a3.89,3.89,0,0,1-3.87,3.84h0Zm674.34-21.79a3.86,3.86,0,0,1,3.62-4.1h0a3.86,3.86,0,0,1,4.1,3.62h0a3.87,3.87,0,0,1-3.62,4.1h-.25A3.88,3.88,0,0,1,1795.61,1099.43Zm-673.31-5.6a3.88,3.88,0,0,1-3.52-4.2h0a3.87,3.87,0,0,1,4.2-3.51h0a3.87,3.87,0,0,1,3.51,4.19h0a3.85,3.85,0,0,1-3.85,3.53h-.34Zm670.55-21.36a3.89,3.89,0,0,1,3.29-4.39h0a3.87,3.87,0,0,1,4.37,3.29h0a3.85,3.85,0,0,1-3.28,4.37h0a3.51,3.51,0,0,1-.55,0h0A3.89,3.89,0,0,1,1792.85,1072.47Zm-667.34-5.87a3.87,3.87,0,0,1-3.16-4.47h0a3.87,3.87,0,0,1,4.47-3.16h0a3.87,3.87,0,0,1,3.16,4.47h0a3.87,3.87,0,0,1-3.81,3.22h0A5.06,5.06,0,0,1,1125.51,1066.6Zm662.43-20.79h0a3.85,3.85,0,0,1,2.91-4.62h0a3.87,3.87,0,0,1,4.63,2.91h0a3.86,3.86,0,0,1-2.92,4.63h0a3.53,3.53,0,0,1-.85.1h0A3.85,3.85,0,0,1,1787.94,1045.81Zm-657-6.09a3.86,3.86,0,0,1-2.79-4.7h0a3.86,3.86,0,0,1,4.71-2.79h0a3.86,3.86,0,0,1,2.79,4.7h0a3.87,3.87,0,0,1-3.75,2.91h0A3.51,3.51,0,0,1,1130.92,1039.72Zm649.95-20.06a3.86,3.86,0,0,1,2.52-4.86h0a3.87,3.87,0,0,1,4.85,2.53h0a3.87,3.87,0,0,1-2.53,4.85h0a3.56,3.56,0,0,1-1.16.18h0A3.85,3.85,0,0,1,1780.87,1019.66Zm-642.37-6.29a3.86,3.86,0,0,1-2.4-4.92h0a3.87,3.87,0,0,1,4.92-2.39h0a3.87,3.87,0,0,1,2.39,4.92h0a3.87,3.87,0,0,1-3.65,2.61h0A3.68,3.68,0,0,1,1138.5,1013.37Zm633.19-19.22a3.86,3.86,0,0,1,2.13-5h0a3.85,3.85,0,0,1,5,2.12h0a3.86,3.86,0,0,1-2.12,5h0a3.94,3.94,0,0,1-1.46.28h0A3.86,3.86,0,0,1,1771.69,994.15ZM1148.2,987.7a3.86,3.86,0,0,1-2-5.09h0a3.86,3.86,0,0,1,5.1-2h0a3.87,3.87,0,0,1,2,5.1h0a3.85,3.85,0,0,1-3.54,2.31h0A3.7,3.7,0,0,1,1148.2,987.7Zm612.28-18.2a3.88,3.88,0,0,1,1.71-5.2h0a3.87,3.87,0,0,1,5.2,1.71h0a3.87,3.87,0,0,1-1.72,5.2h0a3.79,3.79,0,0,1-1.73.41h0A3.88,3.88,0,0,1,1760.48,969.5Zm-600.54-6.59a3.87,3.87,0,0,1-1.56-5.24h0a3.86,3.86,0,0,1,5.24-1.56h0a3.87,3.87,0,0,1,1.57,5.24h0a3.88,3.88,0,0,1-3.41,2h0A3.84,3.84,0,0,1,1159.94,962.91Zm587.37-17.09a3.87,3.87,0,0,1,1.29-5.32h0a3.86,3.86,0,0,1,5.31,1.29h0a3.86,3.86,0,0,1-1.28,5.31h0a3.82,3.82,0,0,1-2,.57h0A3.87,3.87,0,0,1,1747.31,945.82Zm-573.64-6.66a3.87,3.87,0,0,1-1.14-5.35h0a3.87,3.87,0,0,1,5.35-1.14h0A3.87,3.87,0,0,1,1179,938h0a3.89,3.89,0,0,1-3.25,1.77h0A3.85,3.85,0,0,1,1173.67,939.16Zm558.59-15.88a3.87,3.87,0,0,1,.86-5.4h0a3.86,3.86,0,0,1,5.4.85h0a3.86,3.86,0,0,1-.85,5.4h0a3.86,3.86,0,0,1-2.27.75h0A3.89,3.89,0,0,1,1732.26,923.28Zm-543-6.69a3.88,3.88,0,0,1-.7-5.42h0a3.86,3.86,0,0,1,5.42-.71h0a3.86,3.86,0,0,1,.71,5.43h0a3.86,3.86,0,0,1-3.07,1.51h0A3.9,3.9,0,0,1,1189.25,916.59ZM1715.46,902a3.88,3.88,0,0,1,.41-5.46h0a3.88,3.88,0,0,1,5.46.42h0a3.88,3.88,0,0,1-.42,5.46h0a3.87,3.87,0,0,1-2.52.93h0A3.84,3.84,0,0,1,1715.46,902Zm-508.85-6.67a3.85,3.85,0,0,1-.27-5.46h0a3.87,3.87,0,0,1,5.46-.27h0a3.86,3.86,0,0,1,.27,5.47h0a3.85,3.85,0,0,1-2.86,1.27h0A3.82,3.82,0,0,1,1206.61,895.35ZM1697,882.17h0a3.87,3.87,0,0,1,0-5.47h0a3.86,3.86,0,0,1,5.47,0h0a3.86,3.86,0,0,1,0,5.47h0a3.85,3.85,0,0,1-2.74,1.14h0A3.86,3.86,0,0,1,1697,882.17Zm-471.39-6.59a3.87,3.87,0,0,1,.18-5.47h0a3.87,3.87,0,0,1,5.47.18h0a3.87,3.87,0,0,1-.17,5.46h0a3.89,3.89,0,0,1-2.65,1h0A3.9,3.9,0,0,1,1225.6,875.58ZM1677,863.87h0a3.87,3.87,0,0,1-.46-5.45h0A3.86,3.86,0,0,1,1682,858h0a3.87,3.87,0,0,1,.46,5.45h0a3.86,3.86,0,0,1-3,1.37h0A3.87,3.87,0,0,1,1677,863.87Zm-430.86-6.47a3.87,3.87,0,0,1,.61-5.44h0a3.88,3.88,0,0,1,5.44.61h0a3.88,3.88,0,0,1-.61,5.44h0a3.86,3.86,0,0,1-2.42.85h0A3.85,3.85,0,0,1,1246.13,857.4Zm409.46-10.17a3.86,3.86,0,0,1-.9-5.4h0a3.87,3.87,0,0,1,5.39-.9h0a3.87,3.87,0,0,1,.9,5.4h0a3.87,3.87,0,0,1-3.15,1.62h0A3.85,3.85,0,0,1,1655.59,847.23ZM1268,840.92a3.87,3.87,0,0,1,1-5.37h0a3.86,3.86,0,0,1,5.36,1.05h0a3.86,3.86,0,0,1-1,5.37h0a3.81,3.81,0,0,1-2.16.66h0A3.87,3.87,0,0,1,1268,840.92Zm364.86-8.55h0a3.88,3.88,0,0,1-1.33-5.31h0a3.87,3.87,0,0,1,5.31-1.33h0a3.87,3.87,0,0,1,1.33,5.31h0a3.86,3.86,0,0,1-3.32,1.88h0A3.91,3.91,0,0,1,1632.9,832.37Zm-341.7-6.1a3.87,3.87,0,0,1,1.48-5.27h0a3.86,3.86,0,0,1,5.27,1.48h0a3.87,3.87,0,0,1-1.48,5.27h0a4,4,0,0,1-1.9.49h0A3.88,3.88,0,0,1,1291.2,826.27Zm317.89-6.89a3.86,3.86,0,0,1-1.75-5.18h0a3.87,3.87,0,0,1,5.18-1.75h0a3.86,3.86,0,0,1,1.76,5.18h0a3.86,3.86,0,0,1-3.47,2.15h0A3.8,3.8,0,0,1,1609.09,819.38Zm-293.62-5.84a3.89,3.89,0,0,1,1.9-5.14h0a3.87,3.87,0,0,1,5.13,1.9h0a3.86,3.86,0,0,1-1.9,5.13h0a3.7,3.7,0,0,1-1.61.36h0A3.87,3.87,0,0,1,1315.47,813.54Zm268.84-5.17a3.86,3.86,0,0,1-2.17-5h0a3.86,3.86,0,0,1,5-2.17h0a3.88,3.88,0,0,1,2.18,5h0a3.88,3.88,0,0,1-3.6,2.44h0A3.78,3.78,0,0,1,1584.31,808.37Zm-243.63-5.56a3.88,3.88,0,0,1,2.31-5h0a3.87,3.87,0,0,1,5,2.31h0a3.87,3.87,0,0,1-2.31,5h0a3.8,3.8,0,0,1-1.32.24h0A3.88,3.88,0,0,1,1340.68,802.81Zm218-3.4a3.87,3.87,0,0,1-2.57-4.83h0A3.87,3.87,0,0,1,1561,792h0a3.86,3.86,0,0,1,2.57,4.83h0a3.87,3.87,0,0,1-3.7,2.74h0A3.74,3.74,0,0,1,1558.71,799.41Zm-192-5.24a3.88,3.88,0,0,1,2.7-4.76h0a3.88,3.88,0,0,1,4.77,2.7h0a3.88,3.88,0,0,1-2.71,4.76h0a3.7,3.7,0,0,1-1,.14h0A3.88,3.88,0,0,1,1366.7,794.17Zm165.79-1.6a3.88,3.88,0,0,1-3-4.61h0a3.86,3.86,0,0,1,4.61-3h0a3.88,3.88,0,0,1,3,4.6h0a3.88,3.88,0,0,1-3.78,3h0A3.89,3.89,0,0,1,1532.49,792.57Zm-139.15-4.9a3.88,3.88,0,0,1,3.08-4.53h0a3.88,3.88,0,0,1,4.52,3.09h0a3.87,3.87,0,0,1-3.08,4.52h0a3.61,3.61,0,0,1-.73.07h0A3.87,3.87,0,0,1,1393.34,787.67Zm112.46.21a3.88,3.88,0,0,1-3.32-4.36h0a3.86,3.86,0,0,1,4.35-3.31h0a3.87,3.87,0,0,1,3.32,4.35h0a3.87,3.87,0,0,1-3.83,3.35h0A4.53,4.53,0,0,1,1505.8,787.88Zm-85.39-4.53a3.87,3.87,0,0,1,3.44-4.26h0a3.86,3.86,0,0,1,4.25,3.44h0a3.87,3.87,0,0,1-3.43,4.26h0l-.42,0h0A3.87,3.87,0,0,1,1420.41,783.35Zm58.4,2a3.85,3.85,0,0,1-3.65-4.06h0a3.85,3.85,0,0,1,4.06-3.66h0a3.87,3.87,0,0,1,3.67,4.07h0a3.88,3.88,0,0,1-3.86,3.66h-.22Zm-31.07-4.13a3.86,3.86,0,0,1,3.76-4h0a3.88,3.88,0,0,1,4,3.76h0a3.87,3.87,0,0,1-3.77,4h-.11A3.86,3.86,0,0,1,1447.74,781.22Z"/><path class="cls-1" d="M1804.84,1481.41c1.06,1.48,2.43,2.68,2.84,4.15s.66,4.11-.24,5c-1.07,1-3.41.88-5.22,1a2.74,2.74,0,0,1-1.85-1.26c-2.59-3.9-5.87-3.8-9.77-2.17-1.88.78-4.06.85-6.11,1.19-2.77.44-5.22-.06-6-3.17-.69-2.95,1.27-4.33,3.72-5.33a77.4,77.4,0,0,0,7.46-3.43,2.67,2.67,0,0,0,1.2-2.2c-3.26-16.2-2.1-32.57-2.16-48.9,0-4.7,0-9.39,0-14.13-6.31.79-10.59,5.59-10.77,11.28-.36,11.63-1,23.24-1.25,34.86a39.93,39.93,0,0,0,1.57,10.6c.68,2.62,1,4.89-1.63,6.29s-4.55.08-6.13-2.15c-3.73-5.31-5.24-11.32-5.49-17.66-.46-11.72-.75-23.45-1.08-35.18-.07-2.59,0-5.19,0-7.85-6.83,1-11.06,6.29-11.06,12.26,0,10.74-.51,21.48-.51,32.22a67.34,67.34,0,0,0,1.35,12.32c.5,2.65.63,4.94-2.06,6.17-2.51,1.15-4.4-.13-5.86-2.24a29.71,29.71,0,0,1-5.78-16.87c-.11-13.37-.07-26.74,0-40.11.05-5.37.12-5.18-4.6-7.5-1.33-.66-2.85-3-2.62-4.22a5.7,5.7,0,0,1,3.67-3.73c5.44-1,10.27.29,13.25,5.52a91.16,91.16,0,0,1,7.85-5.41c8.52-4.65,12.86-3.54,18,4,4.09-1.94,8-4.28,12.15-5.63,5.88-1.91,9.54-.28,11.94,5.46,1.56,3.76,2,8,2.76,12.06a27.57,27.57,0,0,1,0,5c3.91-1.42,7.62-2.83,11.38-4.13,4.09-1.41,7.06.43,9.36,3.61,3.37,4.67,4.3,10,3.92,15.63C1826,1454.51,1819,1469.48,1804.84,1481.41Zm8.74-50.86c-8.26,2.73-10.89,6.21-11,13.72,0,3-.15,5.91-.18,8.87,0,4,0,7.95,0,12.67C1809.51,1454.83,1813.65,1443.67,1813.58,1430.55Z"/><path class="cls-1" d="M1818.35,832.72c.07,3.58-2.15,5.54-5,5.11a55.51,55.51,0,0,1-6.73-1.53,113.9,113.9,0,0,0-63.27,0c-2,.57-4,1.06-6.06,1.49-2.45.52-4.39-.23-5.31-2.69s.17-4.2,2.2-5.22c6.26-3.12,12.54-6.22,18.95-9,1.9-.83,2.68-1.54,2.67-3.68q-.11-28.12.07-56.26c0-2.08-.86-2.64-2.56-3.39-6.3-2.78-12.5-5.77-18.68-8.81-2.25-1.11-3.66-2.94-2.61-5.63s3.46-3,6-2.46c9.77,1.92,19.47,4.49,29.33,5.55a98.69,98.69,0,0,0,38.71-4c2.11-.62,4.23-1.16,6.37-1.64,2.51-.56,4.72-.07,5.68,2.58.88,2.44-.22,4.35-2.45,5.43-6.28,3.06-12.57,6.14-19,8.94-1.78.78-2.48,1.47-2.46,3.48q.19,27.79.14,55.6c0,2.46.67,3.43,3.05,4.41,6.25,2.59,12.3,5.68,18.32,8.79C1817,830.44,1817.79,832.07,1818.35,832.72Zm-38.28-72H1770v56.82h10.09Z"/><path class="cls-1" d="M1338.42,1520.67c-6.71,1.16-10.62,5.8-10.8,11.83-.36,11.29-1.07,22.58-1.24,33.87-.06,3.85.88,7.76,1.72,11.56.56,2.52.64,4.64-1.86,6s-4.35.06-5.89-2c-4.3-5.7-5.51-12.43-5.81-19.24-.54-12.16-.61-24.34-.9-36.51,0-1.73-.17-3.45-.27-5.44-4.57,1.2-7.66,3.89-10.26,7.15a5.48,5.48,0,0,0-.62,3.07c-.18,11-.47,21.92-.37,32.88a99.85,99.85,0,0,0,1.44,14.62c.4,2.51.09,4.39-2.2,5.53s-4,.17-5.45-1.67a30.46,30.46,0,0,1-6.34-18.68q-.09-20.22.22-40.45c0-3.08-.17-5.35-4-5.7-2.38-.22-3.68-2-3.53-4.39s1.8-3.68,4.12-4c5.41-.7,10,.61,13.12,5.65,2.34-1.68,4.5-3.51,6.9-4.91,8.73-5.09,13.36-4.11,18.83,3.36,4.36-2,8.47-4.24,12.87-5.61,5.08-1.59,8.58-.09,10.88,4.73a27.13,27.13,0,0,1,3,11c.16,16.66-.08,33.33-.4,50-.14,7.52,1.9,10.62,9.2,12.49,3.33-4.31,3.88-4.36,8.92-1.78,2.14,1.09,4.59,1.59,6.65,2.78,1.37.79,3.13,2.28,3.21,3.55.08,1.46-1.18,3.38-2.41,4.46-2.29,2-5,3.46-7.48,5.29-2.91,2.18-5.71,1.48-7.21-1.75a4.18,4.18,0,0,0-2.34-1.94c-1.86-.6-3.89-.67-5.77-1.23-8.78-2.63-14.43-8.42-14.85-17.62-.76-16.32-.75-32.67-1-49C1338.38,1525.92,1338.42,1523.33,1338.42,1520.67Z"/><path class="cls-1" d="M1560.19,660.38c-3.23-4.15-6.29-8.14-9.42-12.09-5.16-6.5-11.31-11.58-19.56-13.68-2.29-.59-3.67-2.2-3.38-4.58a4.09,4.09,0,0,1,4.57-3.8c10.24.22,18.45,5.06,25.77,11.65a95.1,95.1,0,0,1,7.08,7.78c9.51,10.76,20.49,11,30.17.41,5-5.41,9.6-11.14,16.24-14.71,5.07-2.72,10.28-4.91,16.14-5.14,2.68-.11,4.93.59,5.36,3.6s-1.39,4.27-4.06,5c-7.1,2-12.8,6.19-17.47,11.73-3.73,4.43-7.11,9.15-10.66,13.75,18.88,15.55,15.83,39.43,3,51.64a33.88,33.88,0,0,1-47.93-1C1543.59,697.91,1542.34,674.85,1560.19,660.38Zm40,27.3a19.67,19.67,0,1,0-19.75,19.58A19.71,19.71,0,0,0,1600.19,687.68Z"/><path class="cls-1" d="M988,1177.2c7.79-8.25,17.09-10.86,27.53-10.84a12,12,0,0,1,10.1,5.12c3.36,4.38,4.38,9.52,4.38,14.88,0,13.27-.08,26.55-.14,39.83v3.71c4.08-1.29,7.71-2.94,11.52-3.57,13.25-2.21,22.84,9.29,18.44,22.06-3,8.7-9.62,13.42-18.44,15-8.32,1.49-15.1-1.31-20.12-8.21-.25-.34-.56-.64-1-1.1a51.34,51.34,0,0,1-29.72,6.65c-3.36-.28-5.32-2.7-4.44-5.45.81-2.51,2.93-3,5.22-3.22a45.43,45.43,0,0,0,23.11-8.68,4.56,4.56,0,0,0,1.73-3.1c.06-16.23,0-32.47-.08-48.71,0-3-.29-5.91-.42-8.87-.1-2.12-1.06-2.85-3.29-3-9-.8-15.55,3.66-21.61,9.36a4.57,4.57,0,0,0-.88,2.94c-.26,11.06-.59,22.13-.57,33.2a68.27,68.27,0,0,0,1.43,12.64c.5,2.58.45,4.68-2,5.91s-4.41,0-5.89-2.07a30.71,30.71,0,0,1-5.93-17.84c-.07-12.93.06-25.87.11-38.8,0-1.32.05-2.63.12-4,.1-2.11-.86-3.23-3-3.51-2.81-.38-4.91-1.72-4.54-4.91.35-3,2.68-3.65,5.3-3.84C981.13,1168.35,985.49,1170.92,988,1177.2Zm50,77.35c6.41-.6,11.58-4.72,12.89-10.66,1.14-5.2-1.73-8.75-7-8.46-4.9.26-9,2.51-12.76,5.52-4.66,3.72-4.92,6.26-.28,10.17C1032.8,1252.78,1035.59,1253.44,1038,1254.55Z"/><path class="cls-1" d="M1880.86,1247.32c-1.94-5.72-4.41-11-5.52-16.64-2.59-13.11,2.41-23.6,13.07-31.12s22.12-7.79,33.39-1,15.94,17.24,14.43,29.88c-.92,7.74-3.65,15.29-5.83,22.85-2.66,9.26-5.64,18.42-8.34,27.66a12.58,12.58,0,0,0-.15,4.9c.45,3.84,2.64,5.91,6.4,6.34a7.66,7.66,0,0,0,7.73-5,27.73,27.73,0,0,0,.65-2.87c.6-2.49,2.17-3.9,4.73-3.55s3.66,2.16,3.7,4.67c.21,10.28-10.29,18.83-20.35,16.56-8.63-1.94-13.94-8.42-14.4-17.68-.42-8.49,2.05-16.47,4.39-24.48,2.66-9.15,5.74-18.22,7.68-27.53,2.44-11.65-3.72-20.48-14.44-22.16-11.44-1.8-21.84,9.63-19.11,21.35a39.72,39.72,0,0,0,4.51,10.5,49.52,49.52,0,0,1,6.93,21c.94,12-7.21,21.57-18.63,21.66a18.26,18.26,0,0,1-18-16.77,17.6,17.6,0,0,1,15.27-18.41Zm6.59,16.45c-.1-5.46-1.5-7.15-5.8-7a7.63,7.63,0,0,0-7.21,7.52,7,7,0,0,0,6.91,6.56C1885.05,1270.74,1887.52,1267.88,1887.45,1263.77Z"/><path class="cls-1" d="M1166.91,782.53l18.23,2.23c2.7.32,4.72,1.48,4.67,4.49,0,2.81-2,4-4.53,4.26l-18.42,2.25c.65,5.58.93,11.35,2.06,17,1.39,6.86,3.53,13.57,5.26,20.37.36,1.44.85,3.21.34,4.44s-2.17,2.86-3.39,2.92a5.6,5.6,0,0,1-4.25-2.23c-7.28-11.79-12.55-24.35-13.53-38.39-.06-.87-.14-1.75-.24-2.62a4.45,4.45,0,0,0-.34-.83h-14.24c-.7,4.48-1.27,8.91-2.11,13.3-2,10.27-6.58,19.47-11.81,28.4-1.26,2.15-3,3.24-5.49,2.23s-3-3-2.45-5.44c2-7.86,4.28-15.65,6-23.58,1.07-5,1.25-10.19,1.85-15.56-5.26-.57-10.13-1.08-15-1.62-1.19-.14-2.38-.39-3.58-.53-2.66-.31-4.79-1.39-4.82-4.37s2-4.14,4.72-4.45c5.12-.59,10.23-1.19,15.35-1.77l3.29-.35c-.55-5.12-.73-10.25-1.74-15.21-1.44-7.07-3.5-14-5.29-21-.28-1.06-.58-2.11-.79-3.19-.48-2.46.25-4.39,2.71-5.3s4,.24,5.22,2.23c6.76,11.19,11.8,23,13.11,36.18.17,1.63.38,3.27.59,4.9a3.47,3.47,0,0,0,.32.76h14.2c.87-5.22,1.53-10.32,2.59-15.33,2-9.56,6.46-18.14,11.37-26.48,1.24-2.11,3-3.26,5.51-2.15s3,3,2.37,5.46c-2.16,8.6-4.45,17.18-6.3,25.85C1167.41,773.57,1167.37,778,1166.91,782.53Z"/><path class="cls-1" d="M1140.5,1405.4l-24.85-2.31c-1-.09-2-.27-2.94-.4-2.59-.34-4.41-1.6-4.37-4.41s2-4,4.55-4.26c6.22-.68,12.43-1.51,18.66-1.87,8.32-.48,16.67-.67,25-.82,5.34-.1,8.34,2.81,8.08,8.11q-1,20.86-2.43,41.71c-.31,4.64-1.84,6.5-4.53,6.56s-4.18-1.77-4.65-6.4c-.74-7.42-1.32-14.85-2-22.28-.09-1-.16-2.1-.28-3.75l-32.7,31.71c3.21,4.17,6.35,8.22,9.43,12.32a31.41,31.41,0,0,1,2.27,3.62c1.08,1.92,1.29,4.17-.62,5.3-1.41.84-4,1.23-5.28.47-4.47-2.75-8.59-6-12.81-9.18-1.06-.78-2-1.69-3.26-2.74-2,1.86-4,3.72-6,5.52q-7.76,6.87-15.55,13.71c-2.14,1.87-4.39,3.16-7,.8-2-1.8-1.77-4.11.7-7,5.62-6.46,11.33-12.83,17-19.24.72-.8,1.43-1.61,2-2.22-3.77-5.11-7.44-10-11-15-1.5-2.07-2.39-4.39-.33-6.58,2.21-2.35,4.63-1.44,6.81.14,4.88,3.52,9.69,7.11,14.72,10.82Z"/><path class="cls-1" d="M1341.61,648.84c2.81-4.14,5.11-8.46,8.28-12,7.93-8.88,19.3-10.21,28.42-3.82a23.07,23.07,0,0,1,7.52,29.21c-.2.39-.4.78-.63,1.16-1.21,2-2.89,3.08-5.22,2.23s-3.31-2.87-2.63-5.29a15.37,15.37,0,0,0-1.46-12.68c-4.12-6.75-10.91-7.33-16-1.26-4.71,5.64-7.07,12.45-8.18,19.5-1.72,11-2.8,22.16-4.08,33.26-.55,4.79-.91,9.6-1.37,14.4-.27,2.77-1.26,5.08-4.48,5-3,0-4-2.16-4.27-4.85-1.22-12.44-2.18-24.91-3.83-37.29a124.46,124.46,0,0,0-4.75-20.77,30.61,30.61,0,0,0-6-10.38c-3.71-4.34-8.89-4.14-13-.14a13.66,13.66,0,0,0-4.12,12.28,15,15,0,0,0,.6,2.55c.81,2.47.1,4.39-2.22,5.48s-4.21,0-5.55-2c-5.51-8.57-3.48-21,4.64-28.51,7.92-7.29,19.15-8.09,27.26-1.09,3.87,3.34,6.55,8.07,9.7,12.23A16.4,16.4,0,0,1,1341.61,648.84Z"/><path class="cls-1" d="M1916.24,1033.31c-.11-.55-.08-.84-.2-1-8.49-7.28-7.54-19.79-.93-27.54s18-9.16,26.91-3.61a21,21,0,0,1,8.06,26.77c-3.39,7.56-9.59,12.09-17,15.11-11,4.5-22.63,4.73-34.31,4.08a63.79,63.79,0,0,1-35.9-13c-2.16-1.64-3.48-3.53-2-6.14s3.8-2.69,6.24-1.35c13.52,7.37,28.06,8.76,43.07,7.44C1912.14,1033.92,1914.08,1033.59,1916.24,1033.31Zm10.38-1.87c3.21-2.45,6.84-4.56,9.6-7.49,3-3.26,2.27-8-1-10.91a8.17,8.17,0,0,0-10.82.15c-3.55,3.14-4.14,9.1-1.3,13.22Z"/><path class="cls-1" d="M1893.78,989.49c5.54,5.36,7.88,11.48,6.39,18.73a20.54,20.54,0,0,1-16.44,16,21,21,0,0,1-21.67-9.22,22.07,22.07,0,0,1-.09-23.94A25.62,25.62,0,0,1,1874.28,981c25.59-9.8,50.18-8.46,73.26,7.28,2.81,1.92,3.53,4.29,2.06,6.38-1.82,2.6-4.1,2.23-6.66,1-15-7.48-31-9.07-47.42-6.68A14.1,14.1,0,0,0,1893.78,989.49Zm-9.81,1.78c-3.2,2.29-6.67,4.2-9.38,6.86-3,3-2.74,7.34-.17,10.44a8.28,8.28,0,0,0,10.42,1.65c4.63-2.55,5.83-9.13,2.54-14.07C1886.48,994.81,1885.53,993.5,1884,991.27Z"/><path class="cls-1" d="M1543.48,1563.71c-12.46-20.45-4.52-39.58,6.85-48.87a36.78,36.78,0,0,1,45.43-.67c11.4,8.63,20.34,29.27,7.35,49.94,3.29,0,6.08-.09,8.88,0,5.37.19,10.74.47,16.11.77,3.3.18,5.14,1.78,5.12,4.35s-1.75,4.06-5.19,4.22c-13,.59-26.09,1.2-39.13,1.7-4.15.16-6.9-2.22-7-5.74-.1-2.9,1.72-4.55,3.88-6,8.31-5.78,11.66-13.83,10.17-23.7-1.51-10-9.92-17.74-20.09-18.93a22.91,22.91,0,0,0-23.38,13.63,23.25,23.25,0,0,0,6.25,27.21c1.09.92,2.28,1.71,3.41,2.58,2.28,1.76,3.54,4,2.54,6.88s-3.3,4.26-6.39,4.15c-7.46-.25-14.92-.47-22.38-.79-5.59-.24-11.17-.6-16.76-.92-3.66-.21-5.54-1.65-5.56-4.24s2-4.21,5.81-4.39Z"/><path class="cls-1" d="M1570.07,1595.42l-50-2.93c-.77,0-1.53-.15-2.29-.26-2.48-.35-4.16-1.68-4.15-4.26s1.59-4,4.13-4.27c5.66-.57,11.33-1.29,17-1.6,30.36-1.63,60.7-1.81,91,1.18,1.2.12,2.4.28,3.59.47,2.36.39,3.79,1.74,3.82,4.19a3.92,3.92,0,0,1-3.8,4.19c-4.78.61-9.58,1.26-14.38,1.49C1601.21,1594.28,1587.41,1594.74,1570.07,1595.42Z"/><path class="cls-1" d="M965.51,1009.86q9.72-7.05,19.49-14c.85-.6,1.73-1.17,2.31-1.56.84,2.49,2,6.05,3,9a11.28,11.28,0,0,0,7.14,7.1l.12,0h0c5.87,1.35,10-2.94,14.39-6.44,3.48-2.76,6.93-5.56,10.45-8.4a99.88,99.88,0,0,0,5.27,10.88,8.13,8.13,0,0,0,11,3.33,33.57,33.57,0,0,0,5.94-4.19c4.67-4.13,9.39-8.21,14.45-12.64.94,3.52,3.11,10.36,4.62,15,1.17,3.65,6.44,3.78,7.61.13a3.75,3.75,0,0,0,.17-1.6c-.72-6.32-1.38-12.67-2.56-18.9s-7.35-9.25-13.19-6.61a32.31,32.31,0,0,0-5.76,3.75c-4.28,3.17-8.49,6.44-13,9.88-.39-1.9-.64-3.29-1-4.68-2.6-11.61-10.72-14.59-20.1-7.36-1.74,1.34-3.42,2.76-5.1,4.17-3,2.51-6,5-9.24,7.75-.83-2.89-1.37-5.45-2.29-7.87-2.8-7.41-10.45-9.5-16.46-4.28-7.78,6.76-15.31,13.82-22.92,20.77-2.07,1.89-3.2,4.13-1.14,6.62S963.2,1011.53,965.51,1009.86Z"/><path class="cls-1" d="M966.68,1042.55q9.72-7,19.5-14c.85-.6,1.73-1.17,2.31-1.56.83,2.49,2,6,3,9a11.24,11.24,0,0,0,7.14,7.1l.11,0h0c5.88,1.35,10-2.94,14.4-6.44,3.48-2.76,6.92-5.56,10.45-8.4a96.27,96.27,0,0,0,5.27,10.88,8.12,8.12,0,0,0,11,3.33,34.19,34.19,0,0,0,5.95-4.18c4.67-4.14,9.38-8.22,14.45-12.64.94,3.51,3.11,10.35,4.61,15,1.18,3.65,6.44,3.79,7.62.14a4,4,0,0,0,.17-1.61c-.72-6.32-1.38-12.66-2.57-18.9s-7.34-9.25-13.18-6.61a33,33,0,0,0-5.77,3.75c-4.27,3.17-8.48,6.44-13,9.89-.38-1.91-.63-3.3-.94-4.69-2.61-11.61-10.73-14.59-20.11-7.36-1.73,1.34-3.41,2.76-5.1,4.17-3,2.51-6,5-9.24,7.75-.82-2.89-1.37-5.45-2.28-7.87-2.81-7.41-10.46-9.5-16.46-4.28-7.79,6.77-15.31,13.82-22.93,20.77-2.06,1.89-3.19,4.14-1.13,6.62S964.38,1044.22,966.68,1042.55Z"/><path class="cls-1" d="M345.69,679.91a15.54,15.54,0,0,1,2.24-13.74c5.59-7.64,15.75-14.13,34-15.25,0,0-19.7-87.51,56.64-96.69C517,544.79,521,637,521,637s44.47-48.93,68.7,10.69c0,0,47.86-24.15,70.84,4.84a21.87,21.87,0,0,1-.19,27.36Z"/><path class="cls-1" d="M2513.78,832.85a10.73,10.73,0,0,0-1.55-9.51c-3.87-5.29-10.9-9.78-23.5-10.55,0,0,13.63-60.56-39.2-66.91-54.28-6.53-57.08,57.29-57.08,57.29s-30.77-33.86-47.54,7.4c0,0-33.12-16.71-49,3.34a15.14,15.14,0,0,0,.13,18.94Z"/><path class="cls-1" d="M733.07,494.37c11.72,0,11.74-18.22,0-18.22s-11.74,18.22,0,18.22Z"/><path class="cls-1" d="M843.73,602.22c11.72,0,11.74-18.22,0-18.22s-11.74,18.22,0,18.22Z"/><path class="cls-1" d="M950.1,522.16c11.72,0,11.74-18.21,0-18.21s-11.74,18.21,0,18.21Z"/><path class="cls-1" d="M1162.05,485.26c11.72,0,11.74-18.21,0-18.21s-11.74,18.21,0,18.21Z"/><polygon class="cls-1" points="843.64 594.5 732.33 486.02 733.8 484.5 843.82 591.72 949.67 512.06 1161.87 475.11 1162.23 477.19 950.53 514.05 843.64 594.5"/><path class="cls-1" d="M1874.22,506.24c9-4.81,1.52-18.76-7.47-13.95s-1.52,18.76,7.47,13.95Z"/><path class="cls-1" d="M1929.43,352.45c9-4.81,1.52-18.76-7.47-13.95s-1.52,18.76,7.47,13.95Z"/><path class="cls-1" d="M2076.46,515.11c9-4.81,1.52-18.76-7.47-13.95s-1.52,18.76,7.47,13.95Z"/><path class="cls-1" d="M1750.69,457.14c9-4.81,1.52-18.76-7.47-13.95s-1.52,18.76,7.47,13.95Z"/><path class="cls-1" d="M1706.74,316.18c9-4.81,1.52-18.76-7.47-13.95s-1.52,18.77,7.47,13.95Z"/><path class="cls-1" d="M1871.11,500.65,1746.1,451l-.15-.48-44.46-142.59,225.63,36.75Zm-123.3-51.28,122,48.51,54.41-151.57-219.75-35.79Z"/><rect class="cls-1" x="1998.15" y="317.17" width="2.11" height="219.26" transform="translate(229.91 1450.8) rotate(-42.11)"/><path class="cls-1" d="M691.62,1533.76c8.91,0,8.93-13.85,0-13.85s-8.92,13.85,0,13.85Z"/><path class="cls-1" d="M846.32,1477.67c8.91,0,8.92-13.84,0-13.84s-8.92,13.84,0,13.84Z"/><path class="cls-1" d="M819.94,1587.76c8.91,0,8.93-13.85,0-13.85s-8.92,13.85,0,13.85Z"/><path class="cls-1" d="M924.21,1642.81c8.91,0,8.92-13.84,0-13.84s-8.93,13.84,0,13.84Z"/><path class="cls-1" d="M927.06,1738.79c8.91,0,8.92-13.85,0-13.85s-8.92,13.85,0,13.85Z"/><path class="cls-1" d="M926,1731.89l-2.84-95.75-76.44-162.08-26,108.23-131.95-55.53,156.82-56.85.06-.27.41.09.84-.3.27.57.53.13-.16.66,77.76,164.85,2.85,96.19Zm-231.48-205,124.69,52.47,25.74-107Z"/><polygon class="cls-7" points="2530.62 1744.11 2554.8 1779.23 2517.95 1805.17 2491.01 1765.87 2530.62 1744.11"/><path class="cls-8" d="M2483.1,1841.3a4.64,4.64,0,0,1,1.6-5.61l5.08-3.68,13.52-31.3,23,4.84,31.83-23.06a1.76,1.76,0,0,1,2.47.41l3.46,4.87a1.23,1.23,0,0,1-.28,1.7l-74,53.63A4.43,4.43,0,0,1,2483.1,1841.3Z"/><path class="cls-9" d="M2489.46,1822.43l18.42-31.68c18.49,2.81,24.55-15,24.55-15,5.52-9.64,16.06-6.24,16.06-6.24l9.37,13.19-73.18,53C2483.83,1830.3,2489.46,1822.43,2489.46,1822.43Z"/><polygon points="2548.76 1769.35 2558.09 1782.47 2557.55 1782.87 2548.22 1769.74 2548.76 1769.35"/><path d="M2522.26,1788.63l-.3-.6a23.8,23.8,0,0,0,10.16-12.37l.62.23a24.74,24.74,0,0,1-8.74,11.61A16.21,16.21,0,0,1,2522.26,1788.63Z"/><polygon points="2550.69 1779.95 2551.32 1780.19 2549.54 1785.04 2548.91 1784.8 2550.69 1779.95"/><polygon points="2547.74 1781.08 2548.37 1781.32 2546.59 1786.17 2545.96 1785.93 2547.74 1781.08"/><path d="M2486.85,1843.62l-.06.67a4.74,4.74,0,0,1-3.5-2,4.87,4.87,0,0,1,1.1-6.75l73.17-53a2.57,2.57,0,0,1,3.59.6l2.59,3.65-.54.39-2.59-3.65a1.9,1.9,0,0,0-2.66-.44l-73.17,53a4.19,4.19,0,0,0-1,5.81A4.1,4.1,0,0,0,2486.85,1843.62Z"/><path d="M2484.25,1835.88c0-.18-.73-4.32,3.11-10.71s20.07-34.31,20.23-34.59l.58.34c-.16.28-16.46,28.32-20.24,34.6s-3,10.19-3,10.23Z"/><polygon class="cls-7" points="2306.86 1790.95 2351.6 1796.59 2350.96 1839.36 2306.03 1838.74 2306.86 1790.95"/><path class="cls-8" d="M2261.23,1853a4.49,4.49,0,0,1-4.37-5.39,4.57,4.57,0,0,1,4.54-3.61h6.25l29.06-17.47,15.88,17.47h39.18a1.78,1.78,0,0,1,1.77,1.79v6a1.22,1.22,0,0,1-1.21,1.22Z"/><path class="cls-9" d="M2272.92,1836l33.27-14.89c13.39,13.17,28.59,2.28,28.59,2.28,10-4.57,16.64,4.39,16.64,4.39V1844h-90.09C2263.8,1839.07,2272.92,1836,2272.92,1836Z"/><rect x="2351.09" y="1827.77" width="0.67" height="16.16"/><path d="M2319.19,1827.17a23.49,23.49,0,0,0,15.4-4.06l.38.55a24.43,24.43,0,0,1-13.81,4.29,17.42,17.42,0,0,1-2.07-.11Z"/><polygon points="2347.2 1837.53 2347.58 1838.08 2343.33 1840.98 2342.95 1840.42 2347.2 1837.53"/><polygon points="2344.16 1836.71 2344.53 1837.27 2340.28 1840.16 2339.91 1839.6 2344.16 1836.71"/><path d="M2258.13,1852.18a4.87,4.87,0,0,1-1.69-3.69,4.82,4.82,0,0,1,4.79-4.84h90.07a2.59,2.59,0,0,1,2.57,2.6v4.48h-.66v-4.48a1.92,1.92,0,0,0-1.91-1.92h-90.07a4.14,4.14,0,0,0-4.12,4.16,4.2,4.2,0,0,0,1.45,3.18Z"/><path d="M2261.53,1844.13l-.6-.28c.07-.16,1.9-3.94,8.71-6.87s36.12-16.06,36.41-16.19l.27.61c-.29.14-29.73,13.32-36.42,16.2S2261.55,1844.1,2261.53,1844.13Z"/><path class="cls-10" d="M2344.53,1805a127.37,127.37,0,0,1-36.84-5.61,17,17,0,0,1-11.94-15.92l-6.29-391.44a16.88,16.88,0,0,1,.19-2.84l.3-1.94a16.73,16.73,0,0,1,22.54-13.21l62.44,24.22a16.88,16.88,0,0,1,10.73,16.34c-1.69,50.26-9,246.89-24.53,375.54A16.77,16.77,0,0,1,2344.53,1805Z"/><path class="cls-11" d="M2499.82,1781.57a14.08,14.08,0,0,1-15.64-4.52l-135.39-163.39a37.46,37.46,0,0,1-8-17.19l-33.16-181.55,117.55-23.42,10.51,181.36s75.65,118.54,104.67,170a14.37,14.37,0,0,1-3.56,18.28A127.16,127.16,0,0,1,2499.82,1781.57Z"/><path class="cls-12" d="M2546,1752.91h0Z"/><path class="cls-13" d="M2286.67,1472.48s-8.53-119.49-.56-138.19,155.64-19.69,155.64-19.69,5,126,0,148.53C2441.75,1463.13,2318.91,1481.82,2286.67,1472.48Z"/><path class="cls-8" d="M2361.48,1126.13c7.19,2-16.84,57.21-30.44,25-4.76-11.28,8.69-76.08,27.66-86.67s.14,9.3.14,9.3S2354.28,1124.16,2361.48,1126.13Z"/><path class="cls-7" d="M2346.91,1115.57c-4.36-9.52,11.79-54.73,11.79-54.73s35.81-5.64,36-6.43,5.56,20.34,5.56,20.34l-16.87,77.62-33.36-2.84,6.12-27.26C2349,1120.57,2346.91,1115.57,2346.91,1115.57Z"/><path class="cls-14" d="M2364.14,1084.67c.11-.08.23,0,.27.13a13.23,13.23,0,0,1-.47,7.43,9,9,0,0,1-4.68,4.85c.07.82.41,3.36,1.66,4.06a.32.32,0,0,1,.09.39.26.26,0,0,1-.26.19l0,0c-1.7-1-1.9-4.6-1.91-4.75v-.27l.19-.08a8.36,8.36,0,0,0,4.58-4.6,12.64,12.64,0,0,0,.44-6.93A.37.37,0,0,1,2364.14,1084.67Z"/><path class="cls-14" d="M2382.73,1120.74s-15.67,9.75-28.62,10.82l2-9.29S2371.88,1124.73,2382.73,1120.74Z"/><path class="cls-15" d="M2385.06,1090.37c-.21-.35-5.33-8.56-12.44-5a.6.6,0,0,1-.81-.27.61.61,0,0,1,.27-.82c8.11-4.1,14,5.32,14,5.42a.61.61,0,0,1-.2.83.6.6,0,0,1-.45.08A.62.62,0,0,1,2385.06,1090.37Z"/><path class="cls-15" d="M2361.16,1083.91c0-.05-3.81-5.06-6.84-3.41a.6.6,0,0,1-.81-.24.61.61,0,0,1,.25-.83c3.94-2.15,8.19,3.51,8.37,3.75a.62.62,0,0,1-.12.85.59.59,0,0,1-.49.11A.61.61,0,0,1,2361.16,1083.91Z"/><path d="M2373,1091.4a1.67,1.67,0,1,1,1.28,2A1.68,1.68,0,0,1,2373,1091.4Z"/><path d="M2353.79,1087.28a1.67,1.67,0,1,1,1.28,2A1.68,1.68,0,0,1,2353.79,1087.28Z"/><path class="cls-16" d="M2356.41,1105s11.69,1,11.87,1.08c0,0-2,4.69-6.38,4.29S2356.41,1105,2356.41,1105Z"/><path class="cls-7" d="M2382.82,1055.13l-10.17,9.48s-2.2-2.94-3.19-3.48S2382.82,1055.13,2382.82,1055.13Z"/><path class="cls-8" d="M2349.76,1076.23s-4.37-27.64,27.3-30.17,29.69,21.2,29.12,20.86-8.71-2.75-8.71-2.75S2391.68,1081.08,2349.76,1076.23Z"/><path class="cls-8" d="M2394.77,1053.77c16.14-8,33.89,14.41,30.54,32.28-5.35,28.54.77,85.6-23.84,81l-5-.93c-28.57-1.55-.07-71.51-.07-71.51-1.86-9-7.16-21.92-7.16-21.92S2378.63,1061.8,2394.77,1053.77Z"/><path class="cls-7" d="M2387.58,1102a9.39,9.39,0,1,1,7.17,11.27A9.43,9.43,0,0,1,2387.58,1102Z"/><path class="cls-14" d="M2399.93,1103.18a3.77,3.77,0,0,1,.54,4.59,4,4,0,0,1-4.27,2.13h-.06a.3.3,0,0,1-.22-.36.29.29,0,0,1,.36-.23,3.33,3.33,0,0,0,3.66-1.82,3.2,3.2,0,0,0-.43-3.87,4,4,0,0,0-4.94-.43l-.91.59.48-1a5.19,5.19,0,0,1,3.1-2.89,6.3,6.3,0,0,1,4.58.68.31.31,0,0,1,.1.42.29.29,0,0,1-.41.1,5.79,5.79,0,0,0-4.1-.61,4.11,4.11,0,0,0-2.26,1.76A4.37,4.37,0,0,1,2399.93,1103.18Z"/><path class="cls-8" d="M2358.46,1052.59l-4.37,15.58-18.6,41.2C2341.08,1064.92,2358.46,1052.59,2358.46,1052.59Z"/><path class="cls-13" d="M2222.39,1313s67.7-36.59,69.45-36.71l-14.26,50.7-38.71,12.15Z"/><path class="cls-12" d="M2381.31,1298.1a.83.83,0,0,1-1-.54.84.84,0,0,1,.54-1l21.56-7a.82.82,0,0,1,1,.54.84.84,0,0,1-.42,1l-.11,0Z"/><path class="cls-12" d="M2260.88,1292.7h0a.81.81,0,0,1-1.09-.38.83.83,0,0,1,.37-1.12l23-11.62a.83.83,0,0,1,.74,1.49Z"/><path class="cls-13" d="M2253.23,1309.19l20.95,12.14,11.93,29.87-30,19.73C2246.37,1330.41,2253.23,1309.19,2253.23,1309.19Z"/><path class="cls-17" d="M2193,1248.81l1.63.23s-32.43,8.92-32.53,8.93-2-.26-2-.26Z"/><polygon class="cls-18" points="2194.62 1249.04 2223.9 1347.05 2189.17 1364.32 2159.77 1258.17 2194.62 1249.04"/><polygon points="2193.01 1249.13 2160.41 1257.9 2160.25 1257.3 2192.91 1248.51 2192.97 1248.49 2194.86 1248.76 2197.03 1256.04 2196.44 1256.22 2194.38 1249.32 2193.01 1249.13"/><polygon class="cls-8" points="2231.07 1252.01 2260.47 1358.16 2189.17 1364.32 2159.77 1258.17 2231.07 1252.01"/><path class="cls-7" d="M2233.89,1312.47l.17,0C2231.81,1315,2232.24,1314.13,2233.89,1312.47Z"/><path class="cls-7" d="M2225.87,1320.84,2204.4,1314a4.61,4.61,0,0,1-3.05-5.45,4.35,4.35,0,0,1,5.51-3s15.59,4.1,27,7c-1.65,1.66-2.08,2.48.17,0,5.1,1.27,9.35,2.29,11,2.58l-10-3.7-1,1.12-.17,0c1.74-1.77,4.84-4.47,7.59-5.28,6.33-1.86,24.67,12.56,24.67,12.56.9,1.3.36,4.42-.68,6.83-2.59,25.84-3.19,29.8-4.53,36.7l-26.89-5.81a65,65,0,0,0-23.59-.7l-2,.31a4.37,4.37,0,0,1-5-3.82,4.6,4.6,0,0,1,3.85-4.91l14.24-2.21a1.05,1.05,0,0,0,.89-.86,1.07,1.07,0,0,0-1.07-1.26l-21.33.41a3.54,3.54,0,0,1-3.66-4.33h0a5.67,5.67,0,0,1,5.23-4.5l21.75-.42a1.06,1.06,0,0,0,1-.88l.07-.36a1.07,1.07,0,0,0-.86-1.24l-23.72-4.29a4.59,4.59,0,0,1-3.73-5,4.36,4.36,0,0,1,5.08-3.69l23.91,4.32a1.06,1.06,0,0,0,1.22-.87l.2-1.13A1.05,1.05,0,0,0,2225.87,1320.84Z"/><polygon class="cls-8" points="2245.87 1305.44 2248.56 1316.02 2232.9 1312.2 2232.46 1305.43 2245.87 1305.44"/><polygon class="cls-17" points="2229.63 1251.71 2230.95 1252.06 2159.77 1258.17 2160.13 1257.71 2229.63 1251.71"/><polygon points="2231.37 1251.93 2248.49 1314.43 2247.89 1314.6 2230.77 1252.1 2231.37 1251.93"/><polygon points="2174.29 1309.43 2189.4 1363.98 2228.03 1360.27 2228.09 1360.89 2188.94 1364.66 2173.69 1309.6 2174.29 1309.43"/><polygon points="2174.78 1263.22 2175.32 1263.54 2171.72 1269.73 2171.18 1269.41 2174.78 1263.22"/><polygon points="2236.55 1294.5 2237.08 1294.81 2233.48 1301.01 2232.95 1300.69 2236.55 1294.5"/><polygon points="2232.04 1297.28 2232.57 1297.6 2228.97 1303.79 2228.44 1303.47 2232.04 1297.28"/><polygon points="2175.76 1267.68 2176.3 1268 2172.7 1274.19 2172.16 1273.87 2175.76 1267.68"/><path class="cls-13" d="M2350.15,1144.59s44.95-2.23,62.14-1.32c26.71,1.41,35.25,70,35.25,70,3.88,45.74,3.83,108.81-10.19,130.56-21.2,32.88-49.74,30.62-49.74,30.62l-131.48-3.57s-10.19-44.34-2.9-61.74l26.76-3.79,15.09-109.15s2.33-37.52,51.08-50.62C2344.34,1146.68,2350.15,1144.59,2350.15,1144.59Z"/><path class="cls-12" d="M2297,1304.83a.77.77,0,0,1-.54.06.83.83,0,0,1-.62-1c.15-.67,14.86-67.09,17.18-89.82a.82.82,0,1,1,1.64.17c-2.33,22.83-17.06,89.34-17.21,90A.82.82,0,0,1,2297,1304.83Z"/><path class="cls-12" d="M2290.07,1289.83l-.12.07a.83.83,0,0,1-1-.28l-6.33-9.07,0-.33,11.62-84c0-.76.85-10.5,8-21.79,6.72-10.59,20.57-24.51,48.35-30.71a.82.82,0,0,1,1,.64.83.83,0,0,1-.62,1c-27.19,6.07-40.71,19.61-47.27,29.9-7.11,11.15-7.81,21-7.82,21.11v.06l-11.58,83.76,5.95,8.53A.84.84,0,0,1,2290.07,1289.83Z"/><rect x="2303.92" y="1323.52" width="1.86" height="97.48" transform="translate(870.51 3638.99) rotate(-88.44)"/><path class="cls-12" d="M2447.63,1214.32a.83.83,0,0,1,.89.76c3.78,46.26,3.3,107.87-10.48,129.25-9.07,14.07-19.5,21.66-28,25.75a54.37,54.37,0,0,1-5.27,2.22c-9.84,3.57-17,3.06-17.27,3a.81.81,0,0,1-.75-.89.83.83,0,0,1,.88-.77c.07,0,7.14.51,16.66-3,8.79-3.2,21.53-10.53,32.33-27.29,13.55-21,14-82.2,10.21-128.2A.84.84,0,0,1,2447.63,1214.32Z"/><path class="cls-12" d="M2252.48,1350.62a.82.82,0,0,1-.93-.71c-3.65-26.91.71-40.42.9-41l.15-.47.49-.09c37.35-6.5,155.14-13.08,156.32-13.15a.83.83,0,0,1,.4,1.58.65.65,0,0,1-.31.08c-1.18.07-117.83,6.59-155.63,13-.72,2.6-3.91,16-.69,39.75A.82.82,0,0,1,2252.48,1350.62Z"/><path class="cls-12" d="M2381.35,1298.52a.78.78,0,0,1-.48.07.82.82,0,0,1-.69-.94c.08-.6,8.75-60.18,11.42-97.44a.83.83,0,1,1,1.65.12c-2.68,37.32-11.35,97-11.44,97.56A.84.84,0,0,1,2381.35,1298.52Z"/><polygon class="cls-7" points="598.14 1781.74 546.26 1788.22 547 1837.34 599.09 1836.63 598.14 1781.74"/><path class="cls-19" d="M651,1853a5.17,5.17,0,0,0,5.07-6.19,5.29,5.29,0,0,0-5.26-4.15h-7.26l-33.68-20.06-18.42,20.06H546.06a2.05,2.05,0,0,0-2,2.05v6.89a1.4,1.4,0,0,0,1.4,1.4Z"/><path class="cls-20" d="M637.48,1833.47l-38.57-17.1c-15.53,15.12-33.15,2.62-33.15,2.62-11.65-5.25-19.3,5-19.3,5v18.65H650.92C648.05,1837,637.48,1833.47,637.48,1833.47Z"/><rect x="546.08" y="1824.03" width="0.77" height="18.55"/><path d="M583.83,1823.34a27.39,27.39,0,0,1-17.85-4.67l-.44.64a28.56,28.56,0,0,0,16,4.93,19.56,19.56,0,0,0,2.4-.13Z"/><rect x="553.22" y="1834.24" width="0.77" height="5.94" transform="translate(-1279.74 1270.91) rotate(-56.07)"/><rect x="556.75" y="1833.31" width="0.77" height="5.94" transform="translate(-1276.58 1270.79) rotate(-55.98)"/><path d="M654.63,1852.06a5.56,5.56,0,0,0-3.59-9.79H546.6a3,3,0,0,0-3,3v5.15h.78v-5.15a2.21,2.21,0,0,1,2.2-2.21H651a4.78,4.78,0,0,1,3.09,8.43Z"/><path d="M650.69,1842.82l.7-.33c-.09-.18-2.2-4.52-10.1-7.88s-41.88-18.45-42.22-18.6l-.32.71c.35.15,34.48,15.29,42.24,18.6C648.58,1838.56,650.67,1842.78,650.69,1842.82Z"/><polygon class="cls-7" points="507.04 1781.74 455.16 1788.22 455.9 1837.34 507.99 1836.63 507.04 1781.74"/><path class="cls-21" d="M559.94,1853a5.17,5.17,0,0,0,5.07-6.19,5.3,5.3,0,0,0-5.27-4.15h-7.25l-33.69-20.06-18.41,20.06H455a2.05,2.05,0,0,0-2,2.05v6.89a1.4,1.4,0,0,0,1.4,1.4Z"/><path class="cls-20" d="M546.38,1833.47l-38.57-17.1c-15.53,15.12-33.15,2.62-33.15,2.62-11.65-5.25-19.3,5-19.3,5v18.65H559.82C557,1837,546.38,1833.47,546.38,1833.47Z"/><rect x="454.97" y="1824.03" width="0.77" height="18.55"/><path d="M492.73,1823.34a27.39,27.39,0,0,1-17.85-4.67l-.44.64a28.54,28.54,0,0,0,16,4.93,19.08,19.08,0,0,0,2.39-.13Z"/><rect x="462.11" y="1834.24" width="0.77" height="5.94" transform="translate(-1319.77 1194.75) rotate(-56.05)"/><rect x="465.65" y="1833.31" width="0.77" height="5.94" transform="translate(-1316.72 1195.27) rotate(-55.98)"/><path d="M563.53,1852.06a5.56,5.56,0,0,0-3.59-9.79H455.5a3,3,0,0,0-3,3v5.15h.77v-5.15a2.21,2.21,0,0,1,2.21-2.21H559.94a4.78,4.78,0,0,1,3.09,8.43Z"/><path d="M559.59,1842.82l.7-.33c-.09-.18-2.21-4.52-10.1-7.88S508.31,1816.16,508,1816l-.32.71c.35.15,34.47,15.29,42.24,18.6C557.48,1838.56,559.57,1842.78,559.59,1842.82Z"/><path class="cls-22" d="M555.46,1796.83a136.64,136.64,0,0,0,39.24-5.92,17.9,17.9,0,0,0,12.73-16.8l6.7-413.15a17.66,17.66,0,0,0-.2-3l-.32-2a17.83,17.83,0,0,0-24-13.94l-66.54,25.55a17.83,17.83,0,0,0-11.43,17.25c1.81,53,9.65,260.58,26.15,396.37A17.8,17.8,0,0,0,555.46,1796.83Z"/><path class="cls-4" d="M459.66,1800.59a135.53,135.53,0,0,0,44.71-4.12,15.08,15.08,0,0,0,11.16-13.26l31.59-366,19.44-101.61-128.1,58.46s-4.53,255.19,7.28,412.61A15.07,15.07,0,0,0,459.66,1800.59Z"/><path class="cls-23" d="M625.44,1452.52c3.78-14.75-18.25-172.8-18.25-172.8l-189.05,13.14c1.11,10.19,7.22,161.43,24.19,173.91S621.66,1467.26,625.44,1452.52Z"/><path class="cls-23" d="M690.5,1262.54s-86.83-40.9-89-40.94l21,61.77,49.09,12.55Z"/><path class="cls-23" d="M520.34,1062.49s-56.27.12-77.67,2.35c-33.25,3.45-39.56,88.87-39.56,88.87-1.94,56.81,2.13,134.79,21,160.79,28.54,39.29,64,34.68,64,34.68l163.9-12.84s9.91-55.48-.29-76.52l-33.65-3-25.76-134s-5.29-46.26-67-59.33C527.71,1064.7,520.34,1062.49,520.34,1062.49Z"/><path class="cls-12" d="M491.15,1254.82a1,1,0,0,0,.59.06,1,1,0,0,0,.81-1.21c-.14-.74-14.73-73.86-20.44-119.75a1,1,0,0,0-2.05.26c5.72,46,20.32,119.16,20.47,119.89A1,1,0,0,0,491.15,1254.82Z"/><path class="cls-12" d="M591.67,1256.8a1,1,0,0,0,.63-.26,1,1,0,0,0,.34-.83c0-.85-4.92-85.1-9.87-113.07a1,1,0,0,0-2,.36c4.92,27.85,9.79,112,9.84,112.83A1,1,0,0,0,591.67,1256.8Z"/><path class="cls-12" d="M604.54,1238.23l.15.08a1,1,0,0,0,1.27-.4l7.33-11.63-.08-.4-19.84-103.19c-.11-.93-1.72-12.93-11.39-26.43-9.06-12.66-27.23-29-62.3-34.87a1,1,0,1,0-.35,2c34.32,5.76,52.06,21.64,60.91,33.94,9.58,13.34,11.08,25.48,11.09,25.61v.07l19.77,102.83-6.89,10.94A1,1,0,0,0,604.54,1238.23Z"/><path class="cls-7" d="M475.44,1067.2c1.16,5.43,8.89,16.32,23.33,16.44a39.55,39.55,0,0,0,11.94-1.75,15,15,0,0,0,10.41-16.11l-2.2-19.28c12.65-1.7,12.17-16.14,12.17-16.14l.36-44.91L479.81,974l-2.05,49.24.34,12.71S474.28,1061.78,475.44,1067.2Z"/><path class="cls-14" d="M518.92,1046.5s-19.6,3.77-29.18-12.5c0,0,.65,24.17,30.81,26.72Z"/><path d="M496.84,1008.54c.31-.32,7.66-7.69,14.31-2.24a.6.6,0,0,0,.85-.09.59.59,0,0,0-.09-.84c-7.51-6.16-15.85,2.24-15.93,2.33a.6.6,0,0,0,0,.85.58.58,0,0,0,.41.17A.62.62,0,0,0,496.84,1008.54Z"/><path class="cls-24" d="M487.65,981.42c-2.41-4.3-11.93,20.82-11.93,20.82l13,2.81,2.33,2.45S490.06,985.72,487.65,981.42Z"/><path d="M521.62,1005.17c.06,0,5.24-4.4,8.06-1.94a.6.6,0,0,0,.79-.91c-3.6-3.14-9.38,1.72-9.63,1.93a.6.6,0,0,0-.06.85.58.58,0,0,0,.45.21A.57.57,0,0,0,521.62,1005.17Z"/><path d="M508.55,1011.25a1.81,1.81,0,1,0-1.82,1.79A1.81,1.81,0,0,0,508.55,1011.25Z"/><path d="M527.75,1009.6a1.81,1.81,0,0,0-1.79-1.82,1.81,1.81,0,1,0,1.79,1.82Z"/><path class="cls-7" d="M493.65,1010.5a10.83,10.83,0,1,0-10.92,10.74A10.83,10.83,0,0,0,493.65,1010.5Z"/><path class="cls-14" d="M478.41,1008.06a4.23,4.23,0,0,0-1.75,4.93,4.51,4.51,0,0,0,4.22,3.42h.06a.3.3,0,0,0,.3-.31.3.3,0,0,0-.3-.29h-.06a3.88,3.88,0,0,1-3.64-3,3.68,3.68,0,0,1,1.48-4.26,4.71,4.71,0,0,1,5.72.77l.76.77-.25-1.05a5.88,5.88,0,0,0-2.73-4,7.32,7.32,0,0,0-5.28-.39.3.3,0,0,0-.2.38.3.3,0,0,0,.38.19,6.81,6.81,0,0,1,4.81.35,4.9,4.9,0,0,1,2.16,2.68A5.08,5.08,0,0,0,478.41,1008.06Z"/><path class="cls-14" d="M514.53,1023.27a.3.3,0,0,0,.29.2h.09l6.52-2.1-1.85-14.7a.3.3,0,0,0-.6.08l1.79,14.2-6,1.95A.3.3,0,0,0,514.53,1023.27Z"/><path class="cls-16" d="M522,1029.08s-11.73.18-11.91.21c0,0,1.68,4.78,6,4.71S522,1029.08,522,1029.08Z"/><path class="cls-24" d="M526.9,956c-4.46-4-41.62,9.48-48.14,17.29s-3,28.92-3,28.92a42.61,42.61,0,0,1,21.46-16.7c19,6.33,51.08,1,47.82-12.24s-18.17-8.57-18.17-8.57S531.36,960,526.9,956Z"/><path class="cls-12" d="M463.81,1247.05l27.36,7.25a1,1,0,1,0,.52-2l-27.35-7.24a1,1,0,0,0-1.26.73,1,1,0,0,0,.6,1.22Z"/><path class="cls-12" d="M641.17,1239.92h0a1,1,0,0,0,.81-1.9l-29.39-12.9a1,1,0,0,0-1.36.53,1,1,0,0,0,.53,1.36Z"/><path class="cls-12" d="M515.06,1345.71c59.63,0,132.62-7.69,137.12-8.17a1.21,1.21,0,0,0,1.07-1.33,1.19,1.19,0,0,0-1.33-1.06c-1.62.17-163.15,17.2-203.73,1.3-40.1-15.72-42.9-104.07-42.92-105a1.2,1.2,0,0,0-2.4.06c.09,3.7,2.86,90.83,44.45,107.13C460.69,1343.92,486.32,1345.71,515.06,1345.71Z"/><path class="cls-23" d="M524.24,1079.9c.09-1.16-2.94-15.14-2.94-15.14l-14.23,15.14L472,1069.31l-20,33.47s52.09-5.52,54.13-5.34S524.15,1081.06,524.24,1079.9Z"/><path class="cls-12" d="M454.78,1471.54h.09a1.2,1.2,0,0,0,.09-2.4c-16.85-1.2-19.16-15.52-23-39.25-.69-4.27-1.4-8.67-2.26-13.42-5.7-31.51-8.21-107.86-8.24-108.62a1.2,1.2,0,0,0-1.2-1.17h0a1.21,1.21,0,0,0-1.16,1.24c0,.77,2.54,77.3,8.27,109,.86,4.72,1.57,9.12,2.26,13.37C433.48,1454.32,436,1470.2,454.78,1471.54Z"/><path class="cls-25" d="M436,1062.49c5.7,7.08,35.32,9.26,43.18,11.84s27.56,8.56,27.56,8.56c5.21-3.87,19.2-20.3,19.2-20.3l14.16,3.92c.27-14.36-20.89-17.51-20.89-17.51l1.43,12.55s-8.68,13-14.62,17.19c-11.78-8.17-30.59-19.75-30.59-19.75l1.5-14.37C455.06,1042.12,430.3,1055.41,436,1062.49Z"/><path class="cls-17" d="M728.45,1195.11l-1.82.25s36.33,10,36.44,10,2.2-.29,2.2-.29Z"/><polygon class="cls-18" points="726.63 1195.36 693.82 1305.16 732.73 1324.51 765.67 1205.6 726.63 1195.36"/><polygon points="728.43 1195.47 764.95 1205.29 765.13 1204.61 728.54 1194.77 728.47 1194.76 726.36 1195.05 723.93 1203.21 724.59 1203.41 726.9 1195.68 728.43 1195.47"/><polygon class="cls-13" points="685.8 1198.7 652.86 1317.61 732.73 1324.51 765.67 1205.6 685.8 1198.7"/><path class="cls-7" d="M682.63,1266.42l-.19,0C685,1269.2,684.48,1268.29,682.63,1266.42Z"/><path class="cls-7" d="M691.62,1275.8l24-7.71a5.17,5.17,0,0,0,3.42-6.11,4.88,4.88,0,0,0-6.18-3.35s-17.46,4.59-30.28,7.79c1.85,1.87,2.33,2.78-.19,0-5.7,1.42-10.47,2.56-12.3,2.89l11.17-4.15,1.13,1.26.19,0c-2-2-5.41-5-8.5-5.91-7.09-2.09-27.64,14.07-27.64,14.07-1,1.45-.39,5,.76,7.65,2.9,29,3.59,33.38,5.08,41.11l30.12-6.5a72.56,72.56,0,0,1,26.44-.79l2.2.35a4.9,4.9,0,0,0,5.59-4.28,5.14,5.14,0,0,0-4.31-5.5l-16-2.47a1.2,1.2,0,0,1-1-1,1.19,1.19,0,0,1,1.19-1.4l23.9.46a4,4,0,0,0,4.1-4.85h0a6.37,6.37,0,0,0-5.85-5.05l-24.37-.47a1.19,1.19,0,0,1-1.15-1l-.07-.39a1.2,1.2,0,0,1,1-1.39l26.58-4.81a5.14,5.14,0,0,0,4.17-5.6,4.89,4.89,0,0,0-5.69-4.14l-26.78,4.84a1.19,1.19,0,0,1-1.38-1l-.22-1.26A1.19,1.19,0,0,1,691.62,1275.8Z"/><polygon class="cls-13" points="669.22 1258.55 666.2 1270.4 683.74 1266.12 684.24 1258.54 669.22 1258.55"/><polygon class="cls-17" points="687.4 1198.35 685.93 1198.75 765.67 1205.6 765.27 1205.08 687.4 1198.35"/><polygon points="685.46 1198.6 666.28 1268.62 666.95 1268.81 686.13 1198.79 685.46 1198.6"/><polygon points="749.4 1263.02 732.48 1324.13 689.2 1319.97 689.14 1320.67 732.99 1324.88 750.07 1263.21 749.4 1263.02"/><polygon points="748.85 1211.25 748.25 1211.61 752.29 1218.55 752.88 1218.19 748.85 1211.25"/><polygon points="679.66 1246.29 679.06 1246.64 683.1 1253.58 683.69 1253.23 679.66 1246.29"/><polygon points="684.71 1249.4 684.11 1249.76 688.14 1256.7 688.74 1256.34 684.71 1249.4"/><polygon points="747.75 1216.25 747.15 1216.6 751.19 1223.54 751.78 1223.19 747.75 1216.25"/><path class="cls-23" d="M651.76,1259.82l-25.38,16.34,16,23.74,9.62,36.44C661.67,1285.62,651.76,1259.82,651.76,1259.82Z"/><path class="cls-12" d="M655.32,1311a1,1,0,0,0,1.12-.94c2.85-33.51-3.45-49.94-3.72-50.62l-.23-.57-.61-.07c-47-5.65-194.49-6.25-196-6.26a1,1,0,0,0-1,1,1,1,0,0,0,1,1c1.47,0,147.51.6,195.1,6.17,1.07,3.17,5.9,19.54,3.38,49.11A1,1,0,0,0,655.32,1311Z"/><path class="cls-1" d="M2657.31,1150.85c7.24,0,7.25-11.25,0-11.25s-7.25,11.25,0,11.25Z"/><path class="cls-1" d="M2102.11,1617.9c7.24,0,7.25-11.26,0-11.26s-7.25,11.26,0,11.26Z"/><path class="cls-1" d="M768.5,1428.46c7.24,0,7.26-11.26,0-11.26s-7.25,11.26,0,11.26Z"/><path class="cls-1" d="M430.88,856.37c7.24,0,7.25-11.25,0-11.25s-7.25,11.25,0,11.25Z"/><path class="cls-1" d="M279,963.29c7.24,0,7.25-11.26,0-11.26s-7.25,11.26,0,11.26Z"/><path class="cls-1" d="M890.42,440c7.24,0,7.25-11.25,0-11.25s-7.25,11.25,0,11.25Z"/><path class="cls-1" d="M1966.44,603.78c7.24,0,7.25-11.25,0-11.25s-7.26,11.25,0,11.25Z"/><path class="cls-1" d="M2211.52,361.19c7.25,0,7.26-11.25,0-11.25s-7.25,11.25,0,11.25Z"/><path class="cls-1" d="M2346.57,603.78c7.24,0,7.26-11.25,0-11.25s-7.25,11.25,0,11.25Z"/><path class="cls-1" d="M1838.89,233.65c7.24,0,7.25-11.26,0-11.26s-7.25,11.26,0,11.26Z"/><path class="cls-1" d="M1318.7,426.22c7.24,0,7.25-11.26,0-11.26s-7.25,11.26,0,11.26Z"/><path class="cls-1" d="M1526.28,433.72c7.24,0,7.25-11.25,0-11.25s-7.26,11.25,0,11.25Z"/><path class="cls-1" d="M631,406.21c7.24,0,7.26-11.25,0-11.25s-7.25,11.25,0,11.25Z"/><path class="cls-1" d="M2216.53,1719.19c7.24,0,7.25-11.26,0-11.26s-7.26,11.26,0,11.26Z"/><path class="cls-1" d="M2721.71,1621.65c7.24,0,7.25-11.25,0-11.25s-7.26,11.25,0,11.25Z"/><path class="cls-1" d="M1811.38,1736.69c7.24,0,7.25-11.25,0-11.25s-7.25,11.25,0,11.25Z"/><path class="cls-1" d="M1506.35,883.32a204.17,204.17,0,0,1,116.22,184.3c0,112.75-91.4,204.16-204.15,204.16-92.29,0-170.28-61.24-195.54-145.3,4.13,128.29,111.41,231,243.16,231,134.36,0,243.28-106.88,243.28-238.73C1709.32,1000.42,1621.53,902.17,1506.35,883.32Z"/><path class="cls-1" d="M1405.83,843.51c-3.37,31.4-30.71,39.82-30.71,39.82s27.34,8.41,30.73,39.81c3.37-31.4,30.71-39.82,30.71-39.82S1409.22,874.9,1405.83,843.51Z"/><path class="cls-1" d="M1532.75,1087.64a38.72,38.72,0,0,1-25.28,32.79,38.71,38.71,0,0,1,25.3,32.77,38.74,38.74,0,0,1,25.28-32.79A38.71,38.71,0,0,1,1532.75,1087.64Z"/><path class="cls-1" d="M1330.9,1079.58a20.49,20.49,0,0,1-13.37,17.34,20.48,20.48,0,0,1,13.38,17.32,20.46,20.46,0,0,1,13.36-17.33A20.46,20.46,0,0,1,1330.9,1079.58Z"/><rect class="cls-12" x="255.4" y="1852.96" width="2551.76" height="6.48"/></svg>